{
    "asset" : {
        "generator" : "Khronos glTF Blender I/O v3.4.50",
        "version" : "2.0"
    },
    "scene" : 0,
    "scenes" : [
        {
            "name" : "Scene",
            "nodes" : [
                16
            ]
        }
    ],
    "nodes" : [
        {
            "name" : "Bone.003",
            "rotation" : [
                0.024246810004115105,
                -0.21805405616760254,
                0.7021369338035583,
                0.6773982048034668
            ],
            "translation" : [
                -1.1641532182693481e-10,
                0.04621347412467003,
                4.423782229423523e-09
            ]
        },
        {
            "name" : "Bone.004",
            "rotation" : [
                0.003662163857370615,
                0.006142446305602789,
                0.026739565655589104,
                0.9996168613433838
            ],
            "scale" : [
                1,
                0.9999999403953552,
                0.9999998807907104
            ],
            "translation" : [
                -1.1641532182693481e-10,
                0.04621347412467003,
                4.423782229423523e-09
            ]
        },
        {
            "children" : [
                0,
                1
            ],
            "name" : "Bone.002",
            "rotation" : [
                0.2596006989479065,
                0.07912427186965942,
                0.513209342956543,
                0.814225435256958
            ],
            "scale" : [
                1,
                0.9999999403953552,
                1
            ],
            "translation" : [
                -4.0745362639427185e-10,
                0.034181348979473114,
                -2.9103830456733704e-10
            ]
        },
        {
            "name" : "Bone.006",
            "rotation" : [
                0.11167795211076736,
                0.10532645881175995,
                0.4075191020965576,
                0.9002013802528381
            ],
            "scale" : [
                1,
                0.9999999403953552,
                1
            ],
            "translation" : [
                -1.3169483281672001e-08,
                0.029835080727934837,
                3.4924596548080444e-09
            ]
        },
        {
            "name" : "Bone.007",
            "rotation" : [
                -0.01454450748860836,
                -0.05759246647357941,
                -0.2552666664123535,
                0.9650443196296692
            ],
            "translation" : [
                -1.3169483281672001e-08,
                0.029835080727934837,
                3.4924596548080444e-09
            ]
        },
        {
            "children" : [
                3,
                4
            ],
            "name" : "Bone.005",
            "rotation" : [
                0.15642306208610535,
                -0.00040807767072692513,
                -0.030928729102015495,
                0.9872056841850281
            ],
            "translation" : [
                -4.0745362639427185e-10,
                0.034181348979473114,
                -2.9103830456733704e-10
            ]
        },
        {
            "children" : [
                2,
                5
            ],
            "name" : "Bone.001",
            "rotation" : [
                -0.06261100620031357,
                5.367151243262924e-05,
                -0.40113964676856995,
                0.913874626159668
            ],
            "translation" : [
                -0.011586817912757397,
                0.044395070523023605,
                -0.005091956816613674
            ]
        },
        {
            "name" : "Bone.008",
            "rotation" : [
                0.39620575308799744,
                -0.32372450828552246,
                0.25195589661598206,
                0.8214266300201416
            ],
            "scale" : [
                0.9999999403953552,
                0.9999999403953552,
                1
            ],
            "translation" : [
                0.05958772823214531,
                0.05012010410428047,
                0.019553057849407196
            ]
        },
        {
            "name" : "Bone.009",
            "rotation" : [
                -0.09745333343744278,
                -0.29393279552459717,
                -0.5276598334312439,
                0.7910003066062927
            ],
            "scale" : [
                1.0000001192092896,
                1.0000001192092896,
                1
            ],
            "translation" : [
                0.06439369171857834,
                0.03324730694293976,
                0.02642161026597023
            ]
        },
        {
            "name" : "Bone.011",
            "rotation" : [
                -0.2824515402317047,
                -0.008168612606823444,
                0.05926886573433876,
                0.9574140310287476
            ],
            "scale" : [
                0.9999999403953552,
                0.9999998211860657,
                0.9999999403953552
            ],
            "translation" : [
                9.313225746154785e-10,
                0.033230096101760864,
                -3.4924596548080444e-10
            ]
        },
        {
            "children" : [
                9
            ],
            "name" : "Bone.010",
            "rotation" : [
                -0.27197691798210144,
                0.007023121230304241,
                -0.9010819792747498,
                0.3376840353012085
            ],
            "scale" : [
                1,
                1,
                0.9999998807907104
            ],
            "translation" : [
                0.06017149239778519,
                0.01990470290184021,
                0.03199125453829765
            ]
        },
        {
            "name" : "Bone.012",
            "rotation" : [
                0.5220167636871338,
                -0.6354026794433594,
                0.3795167803764343,
                0.4239445924758911
            ],
            "scale" : [
                0.9999999403953552,
                0.9999998807907104,
                0.9999999403953552
            ],
            "translation" : [
                -0.07240144163370132,
                -0.0037522725760936737,
                3.0106599297141656e-05
            ]
        },
        {
            "name" : "Bone.013",
            "rotation" : [
                0.45886433124542236,
                -0.2938157916069031,
                -0.314785361289978,
                0.7771911025047302
            ],
            "scale" : [
                0.9999999403953552,
                1,
                1
            ],
            "translation" : [
                -0.05852971598505974,
                -0.007931891828775406,
                0.011912335641682148
            ]
        },
        {
            "children" : [
                6,
                7,
                8,
                10,
                11,
                12
            ],
            "name" : "Root",
            "rotation" : [
                0,
                1.1920928955078125e-07,
                0,
                1
            ]
        },
        {
            "name" : "neutral_bone",
            "rotation" : [
                -0.7071068286895752,
                0,
                0,
                0.7071068286895752
            ]
        },
        {
            "children" : [
                13,
                14
            ],
            "name" : "rig-acropora-prolifera"
        },
        {
            "children" : [
                15
            ],
            "mesh" : 0,
            "name" : "acropora-prolifera",
            "skin" : 0
        }
    ],
    "animations" : [
        {
            "channels" : [
                {
                    "sampler" : 0,
                    "target" : {
                        "node" : 13,
                        "path" : "translation"
                    }
                },
                {
                    "sampler" : 1,
                    "target" : {
                        "node" : 13,
                        "path" : "rotation"
                    }
                },
                {
                    "sampler" : 2,
                    "target" : {
                        "node" : 13,
                        "path" : "scale"
                    }
                },
                {
                    "sampler" : 3,
                    "target" : {
                        "node" : 6,
                        "path" : "translation"
                    }
                },
                {
                    "sampler" : 4,
                    "target" : {
                        "node" : 6,
                        "path" : "rotation"
                    }
                },
                {
                    "sampler" : 5,
                    "target" : {
                        "node" : 6,
                        "path" : "scale"
                    }
                },
                {
                    "sampler" : 6,
                    "target" : {
                        "node" : 2,
                        "path" : "translation"
                    }
                },
                {
                    "sampler" : 7,
                    "target" : {
                        "node" : 2,
                        "path" : "rotation"
                    }
                },
                {
                    "sampler" : 8,
                    "target" : {
                        "node" : 2,
                        "path" : "scale"
                    }
                },
                {
                    "sampler" : 9,
                    "target" : {
                        "node" : 0,
                        "path" : "translation"
                    }
                },
                {
                    "sampler" : 10,
                    "target" : {
                        "node" : 0,
                        "path" : "rotation"
                    }
                },
                {
                    "sampler" : 11,
                    "target" : {
                        "node" : 0,
                        "path" : "scale"
                    }
                },
                {
                    "sampler" : 12,
                    "target" : {
                        "node" : 1,
                        "path" : "translation"
                    }
                },
                {
                    "sampler" : 13,
                    "target" : {
                        "node" : 1,
                        "path" : "rotation"
                    }
                },
                {
                    "sampler" : 14,
                    "target" : {
                        "node" : 1,
                        "path" : "scale"
                    }
                },
                {
                    "sampler" : 15,
                    "target" : {
                        "node" : 5,
                        "path" : "translation"
                    }
                },
                {
                    "sampler" : 16,
                    "target" : {
                        "node" : 5,
                        "path" : "rotation"
                    }
                },
                {
                    "sampler" : 17,
                    "target" : {
                        "node" : 5,
                        "path" : "scale"
                    }
                },
                {
                    "sampler" : 18,
                    "target" : {
                        "node" : 3,
                        "path" : "translation"
                    }
                },
                {
                    "sampler" : 19,
                    "target" : {
                        "node" : 3,
                        "path" : "rotation"
                    }
                },
                {
                    "sampler" : 20,
                    "target" : {
                        "node" : 3,
                        "path" : "scale"
                    }
                },
                {
                    "sampler" : 21,
                    "target" : {
                        "node" : 4,
                        "path" : "translation"
                    }
                },
                {
                    "sampler" : 22,
                    "target" : {
                        "node" : 4,
                        "path" : "rotation"
                    }
                },
                {
                    "sampler" : 23,
                    "target" : {
                        "node" : 4,
                        "path" : "scale"
                    }
                },
                {
                    "sampler" : 24,
                    "target" : {
                        "node" : 7,
                        "path" : "translation"
                    }
                },
                {
                    "sampler" : 25,
                    "target" : {
                        "node" : 7,
                        "path" : "rotation"
                    }
                },
                {
                    "sampler" : 26,
                    "target" : {
                        "node" : 7,
                        "path" : "scale"
                    }
                },
                {
                    "sampler" : 27,
                    "target" : {
                        "node" : 8,
                        "path" : "translation"
                    }
                },
                {
                    "sampler" : 28,
                    "target" : {
                        "node" : 8,
                        "path" : "rotation"
                    }
                },
                {
                    "sampler" : 29,
                    "target" : {
                        "node" : 8,
                        "path" : "scale"
                    }
                },
                {
                    "sampler" : 30,
                    "target" : {
                        "node" : 10,
                        "path" : "translation"
                    }
                },
                {
                    "sampler" : 31,
                    "target" : {
                        "node" : 10,
                        "path" : "rotation"
                    }
                },
                {
                    "sampler" : 32,
                    "target" : {
                        "node" : 10,
                        "path" : "scale"
                    }
                },
                {
                    "sampler" : 33,
                    "target" : {
                        "node" : 9,
                        "path" : "translation"
                    }
                },
                {
                    "sampler" : 34,
                    "target" : {
                        "node" : 9,
                        "path" : "rotation"
                    }
                },
                {
                    "sampler" : 35,
                    "target" : {
                        "node" : 9,
                        "path" : "scale"
                    }
                },
                {
                    "sampler" : 36,
                    "target" : {
                        "node" : 11,
                        "path" : "translation"
                    }
                },
                {
                    "sampler" : 37,
                    "target" : {
                        "node" : 11,
                        "path" : "rotation"
                    }
                },
                {
                    "sampler" : 38,
                    "target" : {
                        "node" : 11,
                        "path" : "scale"
                    }
                },
                {
                    "sampler" : 39,
                    "target" : {
                        "node" : 12,
                        "path" : "translation"
                    }
                },
                {
                    "sampler" : 40,
                    "target" : {
                        "node" : 12,
                        "path" : "rotation"
                    }
                },
                {
                    "sampler" : 41,
                    "target" : {
                        "node" : 12,
                        "path" : "scale"
                    }
                }
            ],
            "name" : "acropora-prolifera-animated",
            "samplers" : [
                {
                    "input" : 7,
                    "interpolation" : "LINEAR",
                    "output" : 8
                },
                {
                    "input" : 7,
                    "interpolation" : "LINEAR",
                    "output" : 9
                },
                {
                    "input" : 7,
                    "interpolation" : "LINEAR",
                    "output" : 10
                },
                {
                    "input" : 7,
                    "interpolation" : "LINEAR",
                    "output" : 11
                },
                {
                    "input" : 7,
                    "interpolation" : "LINEAR",
                    "output" : 12
                },
                {
                    "input" : 7,
                    "interpolation" : "LINEAR",
                    "output" : 13
                },
                {
                    "input" : 7,
                    "interpolation" : "LINEAR",
                    "output" : 14
                },
                {
                    "input" : 7,
                    "interpolation" : "LINEAR",
                    "output" : 15
                },
                {
                    "input" : 7,
                    "interpolation" : "LINEAR",
                    "output" : 16
                },
                {
                    "input" : 7,
                    "interpolation" : "LINEAR",
                    "output" : 17
                },
                {
                    "input" : 7,
                    "interpolation" : "LINEAR",
                    "output" : 18
                },
                {
                    "input" : 7,
                    "interpolation" : "LINEAR",
                    "output" : 19
                },
                {
                    "input" : 7,
                    "interpolation" : "LINEAR",
                    "output" : 20
                },
                {
                    "input" : 7,
                    "interpolation" : "LINEAR",
                    "output" : 21
                },
                {
                    "input" : 7,
                    "interpolation" : "LINEAR",
                    "output" : 22
                },
                {
                    "input" : 7,
                    "interpolation" : "LINEAR",
                    "output" : 23
                },
                {
                    "input" : 7,
                    "interpolation" : "LINEAR",
                    "output" : 24
                },
                {
                    "input" : 7,
                    "interpolation" : "LINEAR",
                    "output" : 25
                },
                {
                    "input" : 7,
                    "interpolation" : "LINEAR",
                    "output" : 26
                },
                {
                    "input" : 7,
                    "interpolation" : "LINEAR",
                    "output" : 27
                },
                {
                    "input" : 7,
                    "interpolation" : "LINEAR",
                    "output" : 28
                },
                {
                    "input" : 7,
                    "interpolation" : "LINEAR",
                    "output" : 29
                },
                {
                    "input" : 7,
                    "interpolation" : "LINEAR",
                    "output" : 30
                },
                {
                    "input" : 7,
                    "interpolation" : "LINEAR",
                    "output" : 31
                },
                {
                    "input" : 7,
                    "interpolation" : "LINEAR",
                    "output" : 32
                },
                {
                    "input" : 7,
                    "interpolation" : "LINEAR",
                    "output" : 33
                },
                {
                    "input" : 7,
                    "interpolation" : "LINEAR",
                    "output" : 34
                },
                {
                    "input" : 7,
                    "interpolation" : "LINEAR",
                    "output" : 35
                },
                {
                    "input" : 7,
                    "interpolation" : "LINEAR",
                    "output" : 36
                },
                {
                    "input" : 7,
                    "interpolation" : "LINEAR",
                    "output" : 37
                },
                {
                    "input" : 7,
                    "interpolation" : "LINEAR",
                    "output" : 38
                },
                {
                    "input" : 7,
                    "interpolation" : "LINEAR",
                    "output" : 39
                },
                {
                    "input" : 7,
                    "interpolation" : "LINEAR",
                    "output" : 40
                },
                {
                    "input" : 7,
                    "interpolation" : "LINEAR",
                    "output" : 41
                },
                {
                    "input" : 7,
                    "interpolation" : "LINEAR",
                    "output" : 42
                },
                {
                    "input" : 7,
                    "interpolation" : "LINEAR",
                    "output" : 43
                },
                {
                    "input" : 7,
                    "interpolation" : "LINEAR",
                    "output" : 44
                },
                {
                    "input" : 7,
                    "interpolation" : "LINEAR",
                    "output" : 45
                },
                {
                    "input" : 7,
                    "interpolation" : "LINEAR",
                    "output" : 46
                },
                {
                    "input" : 7,
                    "interpolation" : "LINEAR",
                    "output" : 47
                },
                {
                    "input" : 7,
                    "interpolation" : "LINEAR",
                    "output" : 48
                },
                {
                    "input" : 7,
                    "interpolation" : "LINEAR",
                    "output" : 49
                }
            ]
        },
        {
            "channels" : [
                {
                    "sampler" : 0,
                    "target" : {
                        "node" : 13,
                        "path" : "translation"
                    }
                },
                {
                    "sampler" : 1,
                    "target" : {
                        "node" : 13,
                        "path" : "rotation"
                    }
                },
                {
                    "sampler" : 2,
                    "target" : {
                        "node" : 13,
                        "path" : "scale"
                    }
                },
                {
                    "sampler" : 3,
                    "target" : {
                        "node" : 6,
                        "path" : "translation"
                    }
                },
                {
                    "sampler" : 4,
                    "target" : {
                        "node" : 6,
                        "path" : "rotation"
                    }
                },
                {
                    "sampler" : 5,
                    "target" : {
                        "node" : 6,
                        "path" : "scale"
                    }
                },
                {
                    "sampler" : 6,
                    "target" : {
                        "node" : 2,
                        "path" : "translation"
                    }
                },
                {
                    "sampler" : 7,
                    "target" : {
                        "node" : 2,
                        "path" : "rotation"
                    }
                },
                {
                    "sampler" : 8,
                    "target" : {
                        "node" : 2,
                        "path" : "scale"
                    }
                },
                {
                    "sampler" : 9,
                    "target" : {
                        "node" : 0,
                        "path" : "translation"
                    }
                },
                {
                    "sampler" : 10,
                    "target" : {
                        "node" : 0,
                        "path" : "rotation"
                    }
                },
                {
                    "sampler" : 11,
                    "target" : {
                        "node" : 0,
                        "path" : "scale"
                    }
                },
                {
                    "sampler" : 12,
                    "target" : {
                        "node" : 1,
                        "path" : "translation"
                    }
                },
                {
                    "sampler" : 13,
                    "target" : {
                        "node" : 1,
                        "path" : "rotation"
                    }
                },
                {
                    "sampler" : 14,
                    "target" : {
                        "node" : 1,
                        "path" : "scale"
                    }
                },
                {
                    "sampler" : 15,
                    "target" : {
                        "node" : 5,
                        "path" : "translation"
                    }
                },
                {
                    "sampler" : 16,
                    "target" : {
                        "node" : 5,
                        "path" : "rotation"
                    }
                },
                {
                    "sampler" : 17,
                    "target" : {
                        "node" : 5,
                        "path" : "scale"
                    }
                },
                {
                    "sampler" : 18,
                    "target" : {
                        "node" : 3,
                        "path" : "translation"
                    }
                },
                {
                    "sampler" : 19,
                    "target" : {
                        "node" : 3,
                        "path" : "rotation"
                    }
                },
                {
                    "sampler" : 20,
                    "target" : {
                        "node" : 3,
                        "path" : "scale"
                    }
                },
                {
                    "sampler" : 21,
                    "target" : {
                        "node" : 4,
                        "path" : "translation"
                    }
                },
                {
                    "sampler" : 22,
                    "target" : {
                        "node" : 4,
                        "path" : "rotation"
                    }
                },
                {
                    "sampler" : 23,
                    "target" : {
                        "node" : 4,
                        "path" : "scale"
                    }
                },
                {
                    "sampler" : 24,
                    "target" : {
                        "node" : 7,
                        "path" : "translation"
                    }
                },
                {
                    "sampler" : 25,
                    "target" : {
                        "node" : 7,
                        "path" : "rotation"
                    }
                },
                {
                    "sampler" : 26,
                    "target" : {
                        "node" : 7,
                        "path" : "scale"
                    }
                },
                {
                    "sampler" : 27,
                    "target" : {
                        "node" : 8,
                        "path" : "translation"
                    }
                },
                {
                    "sampler" : 28,
                    "target" : {
                        "node" : 8,
                        "path" : "rotation"
                    }
                },
                {
                    "sampler" : 29,
                    "target" : {
                        "node" : 8,
                        "path" : "scale"
                    }
                },
                {
                    "sampler" : 30,
                    "target" : {
                        "node" : 10,
                        "path" : "translation"
                    }
                },
                {
                    "sampler" : 31,
                    "target" : {
                        "node" : 10,
                        "path" : "rotation"
                    }
                },
                {
                    "sampler" : 32,
                    "target" : {
                        "node" : 10,
                        "path" : "scale"
                    }
                },
                {
                    "sampler" : 33,
                    "target" : {
                        "node" : 9,
                        "path" : "translation"
                    }
                },
                {
                    "sampler" : 34,
                    "target" : {
                        "node" : 9,
                        "path" : "rotation"
                    }
                },
                {
                    "sampler" : 35,
                    "target" : {
                        "node" : 9,
                        "path" : "scale"
                    }
                },
                {
                    "sampler" : 36,
                    "target" : {
                        "node" : 11,
                        "path" : "translation"
                    }
                },
                {
                    "sampler" : 37,
                    "target" : {
                        "node" : 11,
                        "path" : "rotation"
                    }
                },
                {
                    "sampler" : 38,
                    "target" : {
                        "node" : 11,
                        "path" : "scale"
                    }
                },
                {
                    "sampler" : 39,
                    "target" : {
                        "node" : 12,
                        "path" : "translation"
                    }
                },
                {
                    "sampler" : 40,
                    "target" : {
                        "node" : 12,
                        "path" : "rotation"
                    }
                },
                {
                    "sampler" : 41,
                    "target" : {
                        "node" : 12,
                        "path" : "scale"
                    }
                }
            ],
            "name" : "acropora-prolifera-post",
            "samplers" : [
                {
                    "input" : 50,
                    "interpolation" : "LINEAR",
                    "output" : 51
                },
                {
                    "input" : 50,
                    "interpolation" : "LINEAR",
                    "output" : 52
                },
                {
                    "input" : 50,
                    "interpolation" : "LINEAR",
                    "output" : 53
                },
                {
                    "input" : 50,
                    "interpolation" : "LINEAR",
                    "output" : 54
                },
                {
                    "input" : 50,
                    "interpolation" : "LINEAR",
                    "output" : 55
                },
                {
                    "input" : 50,
                    "interpolation" : "LINEAR",
                    "output" : 56
                },
                {
                    "input" : 50,
                    "interpolation" : "LINEAR",
                    "output" : 57
                },
                {
                    "input" : 50,
                    "interpolation" : "LINEAR",
                    "output" : 58
                },
                {
                    "input" : 50,
                    "interpolation" : "LINEAR",
                    "output" : 59
                },
                {
                    "input" : 50,
                    "interpolation" : "LINEAR",
                    "output" : 60
                },
                {
                    "input" : 50,
                    "interpolation" : "LINEAR",
                    "output" : 61
                },
                {
                    "input" : 50,
                    "interpolation" : "LINEAR",
                    "output" : 62
                },
                {
                    "input" : 50,
                    "interpolation" : "LINEAR",
                    "output" : 63
                },
                {
                    "input" : 50,
                    "interpolation" : "LINEAR",
                    "output" : 64
                },
                {
                    "input" : 50,
                    "interpolation" : "LINEAR",
                    "output" : 65
                },
                {
                    "input" : 50,
                    "interpolation" : "LINEAR",
                    "output" : 66
                },
                {
                    "input" : 50,
                    "interpolation" : "LINEAR",
                    "output" : 67
                },
                {
                    "input" : 50,
                    "interpolation" : "LINEAR",
                    "output" : 68
                },
                {
                    "input" : 50,
                    "interpolation" : "LINEAR",
                    "output" : 69
                },
                {
                    "input" : 50,
                    "interpolation" : "LINEAR",
                    "output" : 70
                },
                {
                    "input" : 50,
                    "interpolation" : "LINEAR",
                    "output" : 71
                },
                {
                    "input" : 50,
                    "interpolation" : "LINEAR",
                    "output" : 72
                },
                {
                    "input" : 50,
                    "interpolation" : "LINEAR",
                    "output" : 73
                },
                {
                    "input" : 50,
                    "interpolation" : "LINEAR",
                    "output" : 74
                },
                {
                    "input" : 50,
                    "interpolation" : "LINEAR",
                    "output" : 75
                },
                {
                    "input" : 50,
                    "interpolation" : "LINEAR",
                    "output" : 76
                },
                {
                    "input" : 50,
                    "interpolation" : "LINEAR",
                    "output" : 77
                },
                {
                    "input" : 50,
                    "interpolation" : "LINEAR",
                    "output" : 78
                },
                {
                    "input" : 50,
                    "interpolation" : "LINEAR",
                    "output" : 79
                },
                {
                    "input" : 50,
                    "interpolation" : "LINEAR",
                    "output" : 80
                },
                {
                    "input" : 50,
                    "interpolation" : "LINEAR",
                    "output" : 81
                },
                {
                    "input" : 50,
                    "interpolation" : "LINEAR",
                    "output" : 82
                },
                {
                    "input" : 50,
                    "interpolation" : "LINEAR",
                    "output" : 83
                },
                {
                    "input" : 50,
                    "interpolation" : "LINEAR",
                    "output" : 84
                },
                {
                    "input" : 50,
                    "interpolation" : "LINEAR",
                    "output" : 85
                },
                {
                    "input" : 50,
                    "interpolation" : "LINEAR",
                    "output" : 86
                },
                {
                    "input" : 50,
                    "interpolation" : "LINEAR",
                    "output" : 87
                },
                {
                    "input" : 50,
                    "interpolation" : "LINEAR",
                    "output" : 88
                },
                {
                    "input" : 50,
                    "interpolation" : "LINEAR",
                    "output" : 89
                },
                {
                    "input" : 50,
                    "interpolation" : "LINEAR",
                    "output" : 90
                },
                {
                    "input" : 50,
                    "interpolation" : "LINEAR",
                    "output" : 91
                },
                {
                    "input" : 50,
                    "interpolation" : "LINEAR",
                    "output" : 92
                }
            ]
        },
        {
            "channels" : [
                {
                    "sampler" : 0,
                    "target" : {
                        "node" : 13,
                        "path" : "translation"
                    }
                },
                {
                    "sampler" : 1,
                    "target" : {
                        "node" : 13,
                        "path" : "rotation"
                    }
                },
                {
                    "sampler" : 2,
                    "target" : {
                        "node" : 13,
                        "path" : "scale"
                    }
                },
                {
                    "sampler" : 3,
                    "target" : {
                        "node" : 6,
                        "path" : "translation"
                    }
                },
                {
                    "sampler" : 4,
                    "target" : {
                        "node" : 6,
                        "path" : "rotation"
                    }
                },
                {
                    "sampler" : 5,
                    "target" : {
                        "node" : 6,
                        "path" : "scale"
                    }
                },
                {
                    "sampler" : 6,
                    "target" : {
                        "node" : 2,
                        "path" : "translation"
                    }
                },
                {
                    "sampler" : 7,
                    "target" : {
                        "node" : 2,
                        "path" : "rotation"
                    }
                },
                {
                    "sampler" : 8,
                    "target" : {
                        "node" : 2,
                        "path" : "scale"
                    }
                },
                {
                    "sampler" : 9,
                    "target" : {
                        "node" : 0,
                        "path" : "translation"
                    }
                },
                {
                    "sampler" : 10,
                    "target" : {
                        "node" : 0,
                        "path" : "rotation"
                    }
                },
                {
                    "sampler" : 11,
                    "target" : {
                        "node" : 0,
                        "path" : "scale"
                    }
                },
                {
                    "sampler" : 12,
                    "target" : {
                        "node" : 1,
                        "path" : "translation"
                    }
                },
                {
                    "sampler" : 13,
                    "target" : {
                        "node" : 1,
                        "path" : "rotation"
                    }
                },
                {
                    "sampler" : 14,
                    "target" : {
                        "node" : 1,
                        "path" : "scale"
                    }
                },
                {
                    "sampler" : 15,
                    "target" : {
                        "node" : 5,
                        "path" : "translation"
                    }
                },
                {
                    "sampler" : 16,
                    "target" : {
                        "node" : 5,
                        "path" : "rotation"
                    }
                },
                {
                    "sampler" : 17,
                    "target" : {
                        "node" : 5,
                        "path" : "scale"
                    }
                },
                {
                    "sampler" : 18,
                    "target" : {
                        "node" : 3,
                        "path" : "translation"
                    }
                },
                {
                    "sampler" : 19,
                    "target" : {
                        "node" : 3,
                        "path" : "rotation"
                    }
                },
                {
                    "sampler" : 20,
                    "target" : {
                        "node" : 3,
                        "path" : "scale"
                    }
                },
                {
                    "sampler" : 21,
                    "target" : {
                        "node" : 4,
                        "path" : "translation"
                    }
                },
                {
                    "sampler" : 22,
                    "target" : {
                        "node" : 4,
                        "path" : "rotation"
                    }
                },
                {
                    "sampler" : 23,
                    "target" : {
                        "node" : 4,
                        "path" : "scale"
                    }
                },
                {
                    "sampler" : 24,
                    "target" : {
                        "node" : 7,
                        "path" : "translation"
                    }
                },
                {
                    "sampler" : 25,
                    "target" : {
                        "node" : 7,
                        "path" : "rotation"
                    }
                },
                {
                    "sampler" : 26,
                    "target" : {
                        "node" : 7,
                        "path" : "scale"
                    }
                },
                {
                    "sampler" : 27,
                    "target" : {
                        "node" : 8,
                        "path" : "translation"
                    }
                },
                {
                    "sampler" : 28,
                    "target" : {
                        "node" : 8,
                        "path" : "rotation"
                    }
                },
                {
                    "sampler" : 29,
                    "target" : {
                        "node" : 8,
                        "path" : "scale"
                    }
                },
                {
                    "sampler" : 30,
                    "target" : {
                        "node" : 10,
                        "path" : "translation"
                    }
                },
                {
                    "sampler" : 31,
                    "target" : {
                        "node" : 10,
                        "path" : "rotation"
                    }
                },
                {
                    "sampler" : 32,
                    "target" : {
                        "node" : 10,
                        "path" : "scale"
                    }
                },
                {
                    "sampler" : 33,
                    "target" : {
                        "node" : 9,
                        "path" : "translation"
                    }
                },
                {
                    "sampler" : 34,
                    "target" : {
                        "node" : 9,
                        "path" : "rotation"
                    }
                },
                {
                    "sampler" : 35,
                    "target" : {
                        "node" : 9,
                        "path" : "scale"
                    }
                },
                {
                    "sampler" : 36,
                    "target" : {
                        "node" : 11,
                        "path" : "translation"
                    }
                },
                {
                    "sampler" : 37,
                    "target" : {
                        "node" : 11,
                        "path" : "rotation"
                    }
                },
                {
                    "sampler" : 38,
                    "target" : {
                        "node" : 11,
                        "path" : "scale"
                    }
                },
                {
                    "sampler" : 39,
                    "target" : {
                        "node" : 12,
                        "path" : "translation"
                    }
                },
                {
                    "sampler" : 40,
                    "target" : {
                        "node" : 12,
                        "path" : "rotation"
                    }
                },
                {
                    "sampler" : 41,
                    "target" : {
                        "node" : 12,
                        "path" : "scale"
                    }
                }
            ],
            "name" : "acropora-prolifera-pre",
            "samplers" : [
                {
                    "input" : 50,
                    "interpolation" : "LINEAR",
                    "output" : 93
                },
                {
                    "input" : 50,
                    "interpolation" : "LINEAR",
                    "output" : 94
                },
                {
                    "input" : 50,
                    "interpolation" : "LINEAR",
                    "output" : 95
                },
                {
                    "input" : 50,
                    "interpolation" : "LINEAR",
                    "output" : 96
                },
                {
                    "input" : 50,
                    "interpolation" : "LINEAR",
                    "output" : 97
                },
                {
                    "input" : 50,
                    "interpolation" : "LINEAR",
                    "output" : 98
                },
                {
                    "input" : 50,
                    "interpolation" : "LINEAR",
                    "output" : 99
                },
                {
                    "input" : 50,
                    "interpolation" : "LINEAR",
                    "output" : 100
                },
                {
                    "input" : 50,
                    "interpolation" : "LINEAR",
                    "output" : 101
                },
                {
                    "input" : 50,
                    "interpolation" : "LINEAR",
                    "output" : 102
                },
                {
                    "input" : 50,
                    "interpolation" : "LINEAR",
                    "output" : 103
                },
                {
                    "input" : 50,
                    "interpolation" : "LINEAR",
                    "output" : 104
                },
                {
                    "input" : 50,
                    "interpolation" : "LINEAR",
                    "output" : 105
                },
                {
                    "input" : 50,
                    "interpolation" : "LINEAR",
                    "output" : 106
                },
                {
                    "input" : 50,
                    "interpolation" : "LINEAR",
                    "output" : 107
                },
                {
                    "input" : 50,
                    "interpolation" : "LINEAR",
                    "output" : 108
                },
                {
                    "input" : 50,
                    "interpolation" : "LINEAR",
                    "output" : 109
                },
                {
                    "input" : 50,
                    "interpolation" : "LINEAR",
                    "output" : 110
                },
                {
                    "input" : 50,
                    "interpolation" : "LINEAR",
                    "output" : 111
                },
                {
                    "input" : 50,
                    "interpolation" : "LINEAR",
                    "output" : 112
                },
                {
                    "input" : 50,
                    "interpolation" : "LINEAR",
                    "output" : 113
                },
                {
                    "input" : 50,
                    "interpolation" : "LINEAR",
                    "output" : 114
                },
                {
                    "input" : 50,
                    "interpolation" : "LINEAR",
                    "output" : 115
                },
                {
                    "input" : 50,
                    "interpolation" : "LINEAR",
                    "output" : 116
                },
                {
                    "input" : 50,
                    "interpolation" : "LINEAR",
                    "output" : 117
                },
                {
                    "input" : 50,
                    "interpolation" : "LINEAR",
                    "output" : 118
                },
                {
                    "input" : 50,
                    "interpolation" : "LINEAR",
                    "output" : 119
                },
                {
                    "input" : 50,
                    "interpolation" : "LINEAR",
                    "output" : 120
                },
                {
                    "input" : 50,
                    "interpolation" : "LINEAR",
                    "output" : 121
                },
                {
                    "input" : 50,
                    "interpolation" : "LINEAR",
                    "output" : 122
                },
                {
                    "input" : 50,
                    "interpolation" : "LINEAR",
                    "output" : 123
                },
                {
                    "input" : 50,
                    "interpolation" : "LINEAR",
                    "output" : 124
                },
                {
                    "input" : 50,
                    "interpolation" : "LINEAR",
                    "output" : 125
                },
                {
                    "input" : 50,
                    "interpolation" : "LINEAR",
                    "output" : 126
                },
                {
                    "input" : 50,
                    "interpolation" : "LINEAR",
                    "output" : 127
                },
                {
                    "input" : 50,
                    "interpolation" : "LINEAR",
                    "output" : 128
                },
                {
                    "input" : 50,
                    "interpolation" : "LINEAR",
                    "output" : 129
                },
                {
                    "input" : 50,
                    "interpolation" : "LINEAR",
                    "output" : 130
                },
                {
                    "input" : 50,
                    "interpolation" : "LINEAR",
                    "output" : 131
                },
                {
                    "input" : 50,
                    "interpolation" : "LINEAR",
                    "output" : 132
                },
                {
                    "input" : 50,
                    "interpolation" : "LINEAR",
                    "output" : 133
                },
                {
                    "input" : 50,
                    "interpolation" : "LINEAR",
                    "output" : 134
                }
            ]
        }
    ],
    "materials" : [
        {
            "doubleSided" : true,
            "name" : "coral_texture",
            "pbrMetallicRoughness" : {
                "baseColorTexture" : {
                    "index" : 0
                },
                "metallicFactor" : 0,
                "roughnessFactor" : 0.800000011920929
            }
        }
    ],
    "meshes" : [
        {
            "name" : "acropora-prolifera",
            "primitives" : [
                {
                    "attributes" : {
                        "POSITION" : 0,
                        "TEXCOORD_0" : 1,
                        "NORMAL" : 2,
                        "JOINTS_0" : 3,
                        "WEIGHTS_0" : 4
                    },
                    "indices" : 5,
                    "material" : 0
                }
            ]
        }
    ],
    "textures" : [
        {
            "sampler" : 0,
            "source" : 0
        }
    ],
    "images" : [
        {
            "mimeType" : "image/png",
            "name" : "coral_texture",
            "uri" : "coral_texture.png"
        }
    ],
    "skins" : [
        {
            "inverseBindMatrices" : 6,
            "joints" : [
                13,
                6,
                2,
                0,
                1,
                5,
                3,
                4,
                7,
                8,
                10,
                9,
                11,
                12,
                14
            ],
            "name" : "rig-acropora-prolifera"
        }
    ],
    "accessors" : [
        {
            "bufferView" : 0,
            "componentType" : 5126,
            "count" : 1250,
            "max" : [
                0.10545755177736282,
                0.1615624725818634,
                0.04702608659863472
            ],
            "min" : [
                -0.11104805022478104,
                -0.06734844297170639,
                -0.038094956427812576
            ],
            "type" : "VEC3"
        },
        {
            "bufferView" : 1,
            "componentType" : 5126,
            "count" : 1250,
            "type" : "VEC2"
        },
        {
            "bufferView" : 2,
            "componentType" : 5126,
            "count" : 1250,
            "type" : "VEC3"
        },
        {
            "bufferView" : 3,
            "componentType" : 5121,
            "count" : 1250,
            "type" : "VEC4"
        },
        {
            "bufferView" : 4,
            "componentType" : 5126,
            "count" : 1250,
            "type" : "VEC4"
        },
        {
            "bufferView" : 5,
            "componentType" : 5123,
            "count" : 4908,
            "type" : "SCALAR"
        },
        {
            "bufferView" : 6,
            "componentType" : 5126,
            "count" : 15,
            "type" : "MAT4"
        },
        {
            "bufferView" : 7,
            "componentType" : 5126,
            "count" : 81,
            "max" : [
                3.3333333333333335
            ],
            "min" : [
                0
            ],
            "type" : "SCALAR"
        },
        {
            "bufferView" : 8,
            "componentType" : 5126,
            "count" : 81,
            "type" : "VEC3"
        },
        {
            "bufferView" : 9,
            "componentType" : 5126,
            "count" : 81,
            "type" : "VEC4"
        },
        {
            "bufferView" : 10,
            "componentType" : 5126,
            "count" : 81,
            "type" : "VEC3"
        },
        {
            "bufferView" : 11,
            "componentType" : 5126,
            "count" : 81,
            "type" : "VEC3"
        },
        {
            "bufferView" : 12,
            "componentType" : 5126,
            "count" : 81,
            "type" : "VEC4"
        },
        {
            "bufferView" : 13,
            "componentType" : 5126,
            "count" : 81,
            "type" : "VEC3"
        },
        {
            "bufferView" : 14,
            "componentType" : 5126,
            "count" : 81,
            "type" : "VEC3"
        },
        {
            "bufferView" : 15,
            "componentType" : 5126,
            "count" : 81,
            "type" : "VEC4"
        },
        {
            "bufferView" : 16,
            "componentType" : 5126,
            "count" : 81,
            "type" : "VEC3"
        },
        {
            "bufferView" : 17,
            "componentType" : 5126,
            "count" : 81,
            "type" : "VEC3"
        },
        {
            "bufferView" : 18,
            "componentType" : 5126,
            "count" : 81,
            "type" : "VEC4"
        },
        {
            "bufferView" : 19,
            "componentType" : 5126,
            "count" : 81,
            "type" : "VEC3"
        },
        {
            "bufferView" : 20,
            "componentType" : 5126,
            "count" : 81,
            "type" : "VEC3"
        },
        {
            "bufferView" : 21,
            "componentType" : 5126,
            "count" : 81,
            "type" : "VEC4"
        },
        {
            "bufferView" : 22,
            "componentType" : 5126,
            "count" : 81,
            "type" : "VEC3"
        },
        {
            "bufferView" : 23,
            "componentType" : 5126,
            "count" : 81,
            "type" : "VEC3"
        },
        {
            "bufferView" : 24,
            "componentType" : 5126,
            "count" : 81,
            "type" : "VEC4"
        },
        {
            "bufferView" : 25,
            "componentType" : 5126,
            "count" : 81,
            "type" : "VEC3"
        },
        {
            "bufferView" : 26,
            "componentType" : 5126,
            "count" : 81,
            "type" : "VEC3"
        },
        {
            "bufferView" : 27,
            "componentType" : 5126,
            "count" : 81,
            "type" : "VEC4"
        },
        {
            "bufferView" : 28,
            "componentType" : 5126,
            "count" : 81,
            "type" : "VEC3"
        },
        {
            "bufferView" : 29,
            "componentType" : 5126,
            "count" : 81,
            "type" : "VEC3"
        },
        {
            "bufferView" : 30,
            "componentType" : 5126,
            "count" : 81,
            "type" : "VEC4"
        },
        {
            "bufferView" : 31,
            "componentType" : 5126,
            "count" : 81,
            "type" : "VEC3"
        },
        {
            "bufferView" : 32,
            "componentType" : 5126,
            "count" : 81,
            "type" : "VEC3"
        },
        {
            "bufferView" : 33,
            "componentType" : 5126,
            "count" : 81,
            "type" : "VEC4"
        },
        {
            "bufferView" : 34,
            "componentType" : 5126,
            "count" : 81,
            "type" : "VEC3"
        },
        {
            "bufferView" : 35,
            "componentType" : 5126,
            "count" : 81,
            "type" : "VEC3"
        },
        {
            "bufferView" : 36,
            "componentType" : 5126,
            "count" : 81,
            "type" : "VEC4"
        },
        {
            "bufferView" : 37,
            "componentType" : 5126,
            "count" : 81,
            "type" : "VEC3"
        },
        {
            "bufferView" : 38,
            "componentType" : 5126,
            "count" : 81,
            "type" : "VEC3"
        },
        {
            "bufferView" : 39,
            "componentType" : 5126,
            "count" : 81,
            "type" : "VEC4"
        },
        {
            "bufferView" : 40,
            "componentType" : 5126,
            "count" : 81,
            "type" : "VEC3"
        },
        {
            "bufferView" : 41,
            "componentType" : 5126,
            "count" : 81,
            "type" : "VEC3"
        },
        {
            "bufferView" : 42,
            "componentType" : 5126,
            "count" : 81,
            "type" : "VEC4"
        },
        {
            "bufferView" : 43,
            "componentType" : 5126,
            "count" : 81,
            "type" : "VEC3"
        },
        {
            "bufferView" : 44,
            "componentType" : 5126,
            "count" : 81,
            "type" : "VEC3"
        },
        {
            "bufferView" : 45,
            "componentType" : 5126,
            "count" : 81,
            "type" : "VEC4"
        },
        {
            "bufferView" : 46,
            "componentType" : 5126,
            "count" : 81,
            "type" : "VEC3"
        },
        {
            "bufferView" : 47,
            "componentType" : 5126,
            "count" : 81,
            "type" : "VEC3"
        },
        {
            "bufferView" : 48,
            "componentType" : 5126,
            "count" : 81,
            "type" : "VEC4"
        },
        {
            "bufferView" : 49,
            "componentType" : 5126,
            "count" : 81,
            "type" : "VEC3"
        },
        {
            "bufferView" : 50,
            "componentType" : 5126,
            "count" : 1,
            "max" : [
                0
            ],
            "min" : [
                0
            ],
            "type" : "SCALAR"
        },
        {
            "bufferView" : 51,
            "componentType" : 5126,
            "count" : 1,
            "type" : "VEC3"
        },
        {
            "bufferView" : 52,
            "componentType" : 5126,
            "count" : 1,
            "type" : "VEC4"
        },
        {
            "bufferView" : 53,
            "componentType" : 5126,
            "count" : 1,
            "type" : "VEC3"
        },
        {
            "bufferView" : 54,
            "componentType" : 5126,
            "count" : 1,
            "type" : "VEC3"
        },
        {
            "bufferView" : 55,
            "componentType" : 5126,
            "count" : 1,
            "type" : "VEC4"
        },
        {
            "bufferView" : 56,
            "componentType" : 5126,
            "count" : 1,
            "type" : "VEC3"
        },
        {
            "bufferView" : 57,
            "componentType" : 5126,
            "count" : 1,
            "type" : "VEC3"
        },
        {
            "bufferView" : 58,
            "componentType" : 5126,
            "count" : 1,
            "type" : "VEC4"
        },
        {
            "bufferView" : 59,
            "componentType" : 5126,
            "count" : 1,
            "type" : "VEC3"
        },
        {
            "bufferView" : 60,
            "componentType" : 5126,
            "count" : 1,
            "type" : "VEC3"
        },
        {
            "bufferView" : 61,
            "componentType" : 5126,
            "count" : 1,
            "type" : "VEC4"
        },
        {
            "bufferView" : 62,
            "componentType" : 5126,
            "count" : 1,
            "type" : "VEC3"
        },
        {
            "bufferView" : 63,
            "componentType" : 5126,
            "count" : 1,
            "type" : "VEC3"
        },
        {
            "bufferView" : 64,
            "componentType" : 5126,
            "count" : 1,
            "type" : "VEC4"
        },
        {
            "bufferView" : 65,
            "componentType" : 5126,
            "count" : 1,
            "type" : "VEC3"
        },
        {
            "bufferView" : 66,
            "componentType" : 5126,
            "count" : 1,
            "type" : "VEC3"
        },
        {
            "bufferView" : 67,
            "componentType" : 5126,
            "count" : 1,
            "type" : "VEC4"
        },
        {
            "bufferView" : 68,
            "componentType" : 5126,
            "count" : 1,
            "type" : "VEC3"
        },
        {
            "bufferView" : 69,
            "componentType" : 5126,
            "count" : 1,
            "type" : "VEC3"
        },
        {
            "bufferView" : 70,
            "componentType" : 5126,
            "count" : 1,
            "type" : "VEC4"
        },
        {
            "bufferView" : 71,
            "componentType" : 5126,
            "count" : 1,
            "type" : "VEC3"
        },
        {
            "bufferView" : 72,
            "componentType" : 5126,
            "count" : 1,
            "type" : "VEC3"
        },
        {
            "bufferView" : 73,
            "componentType" : 5126,
            "count" : 1,
            "type" : "VEC4"
        },
        {
            "bufferView" : 74,
            "componentType" : 5126,
            "count" : 1,
            "type" : "VEC3"
        },
        {
            "bufferView" : 75,
            "componentType" : 5126,
            "count" : 1,
            "type" : "VEC3"
        },
        {
            "bufferView" : 76,
            "componentType" : 5126,
            "count" : 1,
            "type" : "VEC4"
        },
        {
            "bufferView" : 77,
            "componentType" : 5126,
            "count" : 1,
            "type" : "VEC3"
        },
        {
            "bufferView" : 78,
            "componentType" : 5126,
            "count" : 1,
            "type" : "VEC3"
        },
        {
            "bufferView" : 79,
            "componentType" : 5126,
            "count" : 1,
            "type" : "VEC4"
        },
        {
            "bufferView" : 80,
            "componentType" : 5126,
            "count" : 1,
            "type" : "VEC3"
        },
        {
            "bufferView" : 81,
            "componentType" : 5126,
            "count" : 1,
            "type" : "VEC3"
        },
        {
            "bufferView" : 82,
            "componentType" : 5126,
            "count" : 1,
            "type" : "VEC4"
        },
        {
            "bufferView" : 83,
            "componentType" : 5126,
            "count" : 1,
            "type" : "VEC3"
        },
        {
            "bufferView" : 84,
            "componentType" : 5126,
            "count" : 1,
            "type" : "VEC3"
        },
        {
            "bufferView" : 85,
            "componentType" : 5126,
            "count" : 1,
            "type" : "VEC4"
        },
        {
            "bufferView" : 86,
            "componentType" : 5126,
            "count" : 1,
            "type" : "VEC3"
        },
        {
            "bufferView" : 87,
            "componentType" : 5126,
            "count" : 1,
            "type" : "VEC3"
        },
        {
            "bufferView" : 88,
            "componentType" : 5126,
            "count" : 1,
            "type" : "VEC4"
        },
        {
            "bufferView" : 89,
            "componentType" : 5126,
            "count" : 1,
            "type" : "VEC3"
        },
        {
            "bufferView" : 90,
            "componentType" : 5126,
            "count" : 1,
            "type" : "VEC3"
        },
        {
            "bufferView" : 91,
            "componentType" : 5126,
            "count" : 1,
            "type" : "VEC4"
        },
        {
            "bufferView" : 92,
            "componentType" : 5126,
            "count" : 1,
            "type" : "VEC3"
        },
        {
            "bufferView" : 93,
            "componentType" : 5126,
            "count" : 1,
            "type" : "VEC3"
        },
        {
            "bufferView" : 94,
            "componentType" : 5126,
            "count" : 1,
            "type" : "VEC4"
        },
        {
            "bufferView" : 95,
            "componentType" : 5126,
            "count" : 1,
            "type" : "VEC3"
        },
        {
            "bufferView" : 96,
            "componentType" : 5126,
            "count" : 1,
            "type" : "VEC3"
        },
        {
            "bufferView" : 97,
            "componentType" : 5126,
            "count" : 1,
            "type" : "VEC4"
        },
        {
            "bufferView" : 98,
            "componentType" : 5126,
            "count" : 1,
            "type" : "VEC3"
        },
        {
            "bufferView" : 99,
            "componentType" : 5126,
            "count" : 1,
            "type" : "VEC3"
        },
        {
            "bufferView" : 100,
            "componentType" : 5126,
            "count" : 1,
            "type" : "VEC4"
        },
        {
            "bufferView" : 101,
            "componentType" : 5126,
            "count" : 1,
            "type" : "VEC3"
        },
        {
            "bufferView" : 102,
            "componentType" : 5126,
            "count" : 1,
            "type" : "VEC3"
        },
        {
            "bufferView" : 103,
            "componentType" : 5126,
            "count" : 1,
            "type" : "VEC4"
        },
        {
            "bufferView" : 104,
            "componentType" : 5126,
            "count" : 1,
            "type" : "VEC3"
        },
        {
            "bufferView" : 105,
            "componentType" : 5126,
            "count" : 1,
            "type" : "VEC3"
        },
        {
            "bufferView" : 106,
            "componentType" : 5126,
            "count" : 1,
            "type" : "VEC4"
        },
        {
            "bufferView" : 107,
            "componentType" : 5126,
            "count" : 1,
            "type" : "VEC3"
        },
        {
            "bufferView" : 108,
            "componentType" : 5126,
            "count" : 1,
            "type" : "VEC3"
        },
        {
            "bufferView" : 109,
            "componentType" : 5126,
            "count" : 1,
            "type" : "VEC4"
        },
        {
            "bufferView" : 110,
            "componentType" : 5126,
            "count" : 1,
            "type" : "VEC3"
        },
        {
            "bufferView" : 111,
            "componentType" : 5126,
            "count" : 1,
            "type" : "VEC3"
        },
        {
            "bufferView" : 112,
            "componentType" : 5126,
            "count" : 1,
            "type" : "VEC4"
        },
        {
            "bufferView" : 113,
            "componentType" : 5126,
            "count" : 1,
            "type" : "VEC3"
        },
        {
            "bufferView" : 114,
            "componentType" : 5126,
            "count" : 1,
            "type" : "VEC3"
        },
        {
            "bufferView" : 115,
            "componentType" : 5126,
            "count" : 1,
            "type" : "VEC4"
        },
        {
            "bufferView" : 116,
            "componentType" : 5126,
            "count" : 1,
            "type" : "VEC3"
        },
        {
            "bufferView" : 117,
            "componentType" : 5126,
            "count" : 1,
            "type" : "VEC3"
        },
        {
            "bufferView" : 118,
            "componentType" : 5126,
            "count" : 1,
            "type" : "VEC4"
        },
        {
            "bufferView" : 119,
            "componentType" : 5126,
            "count" : 1,
            "type" : "VEC3"
        },
        {
            "bufferView" : 120,
            "componentType" : 5126,
            "count" : 1,
            "type" : "VEC3"
        },
        {
            "bufferView" : 121,
            "componentType" : 5126,
            "count" : 1,
            "type" : "VEC4"
        },
        {
            "bufferView" : 122,
            "componentType" : 5126,
            "count" : 1,
            "type" : "VEC3"
        },
        {
            "bufferView" : 123,
            "componentType" : 5126,
            "count" : 1,
            "type" : "VEC3"
        },
        {
            "bufferView" : 124,
            "componentType" : 5126,
            "count" : 1,
            "type" : "VEC4"
        },
        {
            "bufferView" : 125,
            "componentType" : 5126,
            "count" : 1,
            "type" : "VEC3"
        },
        {
            "bufferView" : 126,
            "componentType" : 5126,
            "count" : 1,
            "type" : "VEC3"
        },
        {
            "bufferView" : 127,
            "componentType" : 5126,
            "count" : 1,
            "type" : "VEC4"
        },
        {
            "bufferView" : 128,
            "componentType" : 5126,
            "count" : 1,
            "type" : "VEC3"
        },
        {
            "bufferView" : 129,
            "componentType" : 5126,
            "count" : 1,
            "type" : "VEC3"
        },
        {
            "bufferView" : 130,
            "componentType" : 5126,
            "count" : 1,
            "type" : "VEC4"
        },
        {
            "bufferView" : 131,
            "componentType" : 5126,
            "count" : 1,
            "type" : "VEC3"
        },
        {
            "bufferView" : 132,
            "componentType" : 5126,
            "count" : 1,
            "type" : "VEC3"
        },
        {
            "bufferView" : 133,
            "componentType" : 5126,
            "count" : 1,
            "type" : "VEC4"
        },
        {
            "bufferView" : 134,
            "componentType" : 5126,
            "count" : 1,
            "type" : "VEC3"
        }
    ],
    "bufferViews" : [
        {
            "buffer" : 0,
            "byteLength" : 15000,
            "byteOffset" : 0,
            "target" : 34962
        },
        {
            "buffer" : 0,
            "byteLength" : 10000,
            "byteOffset" : 15000,
            "target" : 34962
        },
        {
            "buffer" : 0,
            "byteLength" : 15000,
            "byteOffset" : 25000,
            "target" : 34962
        },
        {
            "buffer" : 0,
            "byteLength" : 5000,
            "byteOffset" : 40000,
            "target" : 34962
        },
        {
            "buffer" : 0,
            "byteLength" : 20000,
            "byteOffset" : 45000,
            "target" : 34962
        },
        {
            "buffer" : 0,
            "byteLength" : 9816,
            "byteOffset" : 65000,
            "target" : 34963
        },
        {
            "buffer" : 0,
            "byteLength" : 960,
            "byteOffset" : 74816
        },
        {
            "buffer" : 0,
            "byteLength" : 324,
            "byteOffset" : 75776
        },
        {
            "buffer" : 0,
            "byteLength" : 972,
            "byteOffset" : 76100
        },
        {
            "buffer" : 0,
            "byteLength" : 1296,
            "byteOffset" : 77072
        },
        {
            "buffer" : 0,
            "byteLength" : 972,
            "byteOffset" : 78368
        },
        {
            "buffer" : 0,
            "byteLength" : 972,
            "byteOffset" : 79340
        },
        {
            "buffer" : 0,
            "byteLength" : 1296,
            "byteOffset" : 80312
        },
        {
            "buffer" : 0,
            "byteLength" : 972,
            "byteOffset" : 81608
        },
        {
            "buffer" : 0,
            "byteLength" : 972,
            "byteOffset" : 82580
        },
        {
            "buffer" : 0,
            "byteLength" : 1296,
            "byteOffset" : 83552
        },
        {
            "buffer" : 0,
            "byteLength" : 972,
            "byteOffset" : 84848
        },
        {
            "buffer" : 0,
            "byteLength" : 972,
            "byteOffset" : 85820
        },
        {
            "buffer" : 0,
            "byteLength" : 1296,
            "byteOffset" : 86792
        },
        {
            "buffer" : 0,
            "byteLength" : 972,
            "byteOffset" : 88088
        },
        {
            "buffer" : 0,
            "byteLength" : 972,
            "byteOffset" : 89060
        },
        {
            "buffer" : 0,
            "byteLength" : 1296,
            "byteOffset" : 90032
        },
        {
            "buffer" : 0,
            "byteLength" : 972,
            "byteOffset" : 91328
        },
        {
            "buffer" : 0,
            "byteLength" : 972,
            "byteOffset" : 92300
        },
        {
            "buffer" : 0,
            "byteLength" : 1296,
            "byteOffset" : 93272
        },
        {
            "buffer" : 0,
            "byteLength" : 972,
            "byteOffset" : 94568
        },
        {
            "buffer" : 0,
            "byteLength" : 972,
            "byteOffset" : 95540
        },
        {
            "buffer" : 0,
            "byteLength" : 1296,
            "byteOffset" : 96512
        },
        {
            "buffer" : 0,
            "byteLength" : 972,
            "byteOffset" : 97808
        },
        {
            "buffer" : 0,
            "byteLength" : 972,
            "byteOffset" : 98780
        },
        {
            "buffer" : 0,
            "byteLength" : 1296,
            "byteOffset" : 99752
        },
        {
            "buffer" : 0,
            "byteLength" : 972,
            "byteOffset" : 101048
        },
        {
            "buffer" : 0,
            "byteLength" : 972,
            "byteOffset" : 102020
        },
        {
            "buffer" : 0,
            "byteLength" : 1296,
            "byteOffset" : 102992
        },
        {
            "buffer" : 0,
            "byteLength" : 972,
            "byteOffset" : 104288
        },
        {
            "buffer" : 0,
            "byteLength" : 972,
            "byteOffset" : 105260
        },
        {
            "buffer" : 0,
            "byteLength" : 1296,
            "byteOffset" : 106232
        },
        {
            "buffer" : 0,
            "byteLength" : 972,
            "byteOffset" : 107528
        },
        {
            "buffer" : 0,
            "byteLength" : 972,
            "byteOffset" : 108500
        },
        {
            "buffer" : 0,
            "byteLength" : 1296,
            "byteOffset" : 109472
        },
        {
            "buffer" : 0,
            "byteLength" : 972,
            "byteOffset" : 110768
        },
        {
            "buffer" : 0,
            "byteLength" : 972,
            "byteOffset" : 111740
        },
        {
            "buffer" : 0,
            "byteLength" : 1296,
            "byteOffset" : 112712
        },
        {
            "buffer" : 0,
            "byteLength" : 972,
            "byteOffset" : 114008
        },
        {
            "buffer" : 0,
            "byteLength" : 972,
            "byteOffset" : 114980
        },
        {
            "buffer" : 0,
            "byteLength" : 1296,
            "byteOffset" : 115952
        },
        {
            "buffer" : 0,
            "byteLength" : 972,
            "byteOffset" : 117248
        },
        {
            "buffer" : 0,
            "byteLength" : 972,
            "byteOffset" : 118220
        },
        {
            "buffer" : 0,
            "byteLength" : 1296,
            "byteOffset" : 119192
        },
        {
            "buffer" : 0,
            "byteLength" : 972,
            "byteOffset" : 120488
        },
        {
            "buffer" : 0,
            "byteLength" : 4,
            "byteOffset" : 121460
        },
        {
            "buffer" : 0,
            "byteLength" : 12,
            "byteOffset" : 121464
        },
        {
            "buffer" : 0,
            "byteLength" : 16,
            "byteOffset" : 121476
        },
        {
            "buffer" : 0,
            "byteLength" : 12,
            "byteOffset" : 121492
        },
        {
            "buffer" : 0,
            "byteLength" : 12,
            "byteOffset" : 121504
        },
        {
            "buffer" : 0,
            "byteLength" : 16,
            "byteOffset" : 121516
        },
        {
            "buffer" : 0,
            "byteLength" : 12,
            "byteOffset" : 121532
        },
        {
            "buffer" : 0,
            "byteLength" : 12,
            "byteOffset" : 121544
        },
        {
            "buffer" : 0,
            "byteLength" : 16,
            "byteOffset" : 121556
        },
        {
            "buffer" : 0,
            "byteLength" : 12,
            "byteOffset" : 121572
        },
        {
            "buffer" : 0,
            "byteLength" : 12,
            "byteOffset" : 121584
        },
        {
            "buffer" : 0,
            "byteLength" : 16,
            "byteOffset" : 121596
        },
        {
            "buffer" : 0,
            "byteLength" : 12,
            "byteOffset" : 121612
        },
        {
            "buffer" : 0,
            "byteLength" : 12,
            "byteOffset" : 121624
        },
        {
            "buffer" : 0,
            "byteLength" : 16,
            "byteOffset" : 121636
        },
        {
            "buffer" : 0,
            "byteLength" : 12,
            "byteOffset" : 121652
        },
        {
            "buffer" : 0,
            "byteLength" : 12,
            "byteOffset" : 121664
        },
        {
            "buffer" : 0,
            "byteLength" : 16,
            "byteOffset" : 121676
        },
        {
            "buffer" : 0,
            "byteLength" : 12,
            "byteOffset" : 121692
        },
        {
            "buffer" : 0,
            "byteLength" : 12,
            "byteOffset" : 121704
        },
        {
            "buffer" : 0,
            "byteLength" : 16,
            "byteOffset" : 121716
        },
        {
            "buffer" : 0,
            "byteLength" : 12,
            "byteOffset" : 121732
        },
        {
            "buffer" : 0,
            "byteLength" : 12,
            "byteOffset" : 121744
        },
        {
            "buffer" : 0,
            "byteLength" : 16,
            "byteOffset" : 121756
        },
        {
            "buffer" : 0,
            "byteLength" : 12,
            "byteOffset" : 121772
        },
        {
            "buffer" : 0,
            "byteLength" : 12,
            "byteOffset" : 121784
        },
        {
            "buffer" : 0,
            "byteLength" : 16,
            "byteOffset" : 121796
        },
        {
            "buffer" : 0,
            "byteLength" : 12,
            "byteOffset" : 121812
        },
        {
            "buffer" : 0,
            "byteLength" : 12,
            "byteOffset" : 121824
        },
        {
            "buffer" : 0,
            "byteLength" : 16,
            "byteOffset" : 121836
        },
        {
            "buffer" : 0,
            "byteLength" : 12,
            "byteOffset" : 121852
        },
        {
            "buffer" : 0,
            "byteLength" : 12,
            "byteOffset" : 121864
        },
        {
            "buffer" : 0,
            "byteLength" : 16,
            "byteOffset" : 121876
        },
        {
            "buffer" : 0,
            "byteLength" : 12,
            "byteOffset" : 121892
        },
        {
            "buffer" : 0,
            "byteLength" : 12,
            "byteOffset" : 121904
        },
        {
            "buffer" : 0,
            "byteLength" : 16,
            "byteOffset" : 121916
        },
        {
            "buffer" : 0,
            "byteLength" : 12,
            "byteOffset" : 121932
        },
        {
            "buffer" : 0,
            "byteLength" : 12,
            "byteOffset" : 121944
        },
        {
            "buffer" : 0,
            "byteLength" : 16,
            "byteOffset" : 121956
        },
        {
            "buffer" : 0,
            "byteLength" : 12,
            "byteOffset" : 121972
        },
        {
            "buffer" : 0,
            "byteLength" : 12,
            "byteOffset" : 121984
        },
        {
            "buffer" : 0,
            "byteLength" : 16,
            "byteOffset" : 121996
        },
        {
            "buffer" : 0,
            "byteLength" : 12,
            "byteOffset" : 122012
        },
        {
            "buffer" : 0,
            "byteLength" : 12,
            "byteOffset" : 122024
        },
        {
            "buffer" : 0,
            "byteLength" : 16,
            "byteOffset" : 122036
        },
        {
            "buffer" : 0,
            "byteLength" : 12,
            "byteOffset" : 122052
        },
        {
            "buffer" : 0,
            "byteLength" : 12,
            "byteOffset" : 122064
        },
        {
            "buffer" : 0,
            "byteLength" : 16,
            "byteOffset" : 122076
        },
        {
            "buffer" : 0,
            "byteLength" : 12,
            "byteOffset" : 122092
        },
        {
            "buffer" : 0,
            "byteLength" : 12,
            "byteOffset" : 122104
        },
        {
            "buffer" : 0,
            "byteLength" : 16,
            "byteOffset" : 122116
        },
        {
            "buffer" : 0,
            "byteLength" : 12,
            "byteOffset" : 122132
        },
        {
            "buffer" : 0,
            "byteLength" : 12,
            "byteOffset" : 122144
        },
        {
            "buffer" : 0,
            "byteLength" : 16,
            "byteOffset" : 122156
        },
        {
            "buffer" : 0,
            "byteLength" : 12,
            "byteOffset" : 122172
        },
        {
            "buffer" : 0,
            "byteLength" : 12,
            "byteOffset" : 122184
        },
        {
            "buffer" : 0,
            "byteLength" : 16,
            "byteOffset" : 122196
        },
        {
            "buffer" : 0,
            "byteLength" : 12,
            "byteOffset" : 122212
        },
        {
            "buffer" : 0,
            "byteLength" : 12,
            "byteOffset" : 122224
        },
        {
            "buffer" : 0,
            "byteLength" : 16,
            "byteOffset" : 122236
        },
        {
            "buffer" : 0,
            "byteLength" : 12,
            "byteOffset" : 122252
        },
        {
            "buffer" : 0,
            "byteLength" : 12,
            "byteOffset" : 122264
        },
        {
            "buffer" : 0,
            "byteLength" : 16,
            "byteOffset" : 122276
        },
        {
            "buffer" : 0,
            "byteLength" : 12,
            "byteOffset" : 122292
        },
        {
            "buffer" : 0,
            "byteLength" : 12,
            "byteOffset" : 122304
        },
        {
            "buffer" : 0,
            "byteLength" : 16,
            "byteOffset" : 122316
        },
        {
            "buffer" : 0,
            "byteLength" : 12,
            "byteOffset" : 122332
        },
        {
            "buffer" : 0,
            "byteLength" : 12,
            "byteOffset" : 122344
        },
        {
            "buffer" : 0,
            "byteLength" : 16,
            "byteOffset" : 122356
        },
        {
            "buffer" : 0,
            "byteLength" : 12,
            "byteOffset" : 122372
        },
        {
            "buffer" : 0,
            "byteLength" : 12,
            "byteOffset" : 122384
        },
        {
            "buffer" : 0,
            "byteLength" : 16,
            "byteOffset" : 122396
        },
        {
            "buffer" : 0,
            "byteLength" : 12,
            "byteOffset" : 122412
        },
        {
            "buffer" : 0,
            "byteLength" : 12,
            "byteOffset" : 122424
        },
        {
            "buffer" : 0,
            "byteLength" : 16,
            "byteOffset" : 122436
        },
        {
            "buffer" : 0,
            "byteLength" : 12,
            "byteOffset" : 122452
        },
        {
            "buffer" : 0,
            "byteLength" : 12,
            "byteOffset" : 122464
        },
        {
            "buffer" : 0,
            "byteLength" : 16,
            "byteOffset" : 122476
        },
        {
            "buffer" : 0,
            "byteLength" : 12,
            "byteOffset" : 122492
        },
        {
            "buffer" : 0,
            "byteLength" : 12,
            "byteOffset" : 122504
        },
        {
            "buffer" : 0,
            "byteLength" : 16,
            "byteOffset" : 122516
        },
        {
            "buffer" : 0,
            "byteLength" : 12,
            "byteOffset" : 122532
        },
        {
            "buffer" : 0,
            "byteLength" : 12,
            "byteOffset" : 122544
        },
        {
            "buffer" : 0,
            "byteLength" : 16,
            "byteOffset" : 122556
        },
        {
            "buffer" : 0,
            "byteLength" : 12,
            "byteOffset" : 122572
        }
    ],
    "samplers" : [
        {
            "magFilter" : 9729,
            "minFilter" : 9987
        }
    ],
    "buffers" : [
        {
            "byteLength" : 122584,
            "uri" : "acropora-prolifera.bin"
        }
    ]
}
