<?xml version="1.0" encoding="UTF-8" standalone="no"?>
<svg
   width="2480"
   height="3507.43"
   version="1.1"
   id="svg1480"
   sodipodi:docname="corail-coupe.svg"
   inkscape:version="1.1.2 (0a00cf5339, 2022-02-04)"
   xmlns:inkscape="http://www.inkscape.org/namespaces/inkscape"
   xmlns:sodipodi="http://sodipodi.sourceforge.net/DTD/sodipodi-0.dtd"
   xmlns:xlink="http://www.w3.org/1999/xlink"
   xmlns="http://www.w3.org/2000/svg"
   xmlns:svg="http://www.w3.org/2000/svg">
  <sodipodi:namedview
     id="namedview1482"
     pagecolor="#ffffff"
     bordercolor="#666666"
     borderopacity="1.0"
     inkscape:pageshadow="2"
     inkscape:pageopacity="0.0"
     inkscape:pagecheckerboard="0"
     showgrid="false"
     inkscape:zoom="0.23749583"
     inkscape:cx="1240.0217"
     inkscape:cy="1753.715"
     inkscape:window-width="1866"
     inkscape:window-height="1016"
     inkscape:window-x="54"
     inkscape:window-y="147"
     inkscape:window-maximized="1"
     inkscape:current-layer="svg1480" />
  <metadata
     id="metadata247">image/svg+xml</metadata>
  <defs
     id="defs1373">
    <linearGradient
       id="linearGradient9382">
      <stop
         stop-color="#000000"
         id="stop9384"
         offset="0" />
      <stop
         stop-color="#000000"
         stop-opacity="0"
         id="stop9386"
         offset="1" />
    </linearGradient>
    <linearGradient
       gradientUnits="userSpaceOnUse"
       id="linearGradient3621"
       y2="493.65701"
       x2="1108.0601"
       y1="1189.77"
       x1="643.98602">
      <stop
         stop-color="#e87877"
         id="stop3623"
         offset="0" />
      <stop
         stop-color="#e87877"
         id="stop3625"
         offset="0.219608" />
      <stop
         stop-color="#f4e6e2"
         id="stop3627"
         offset="1" />
    </linearGradient>
    <path
       d="m0,0z"
       id="path11" />
    <path
       d="m31.6693,214.835007l0,88.330704l270.157024,0l0,-88.330704l-270.157024,0z"
       id="path15" />
    <path
       d="m73.165398,0l0,715.827026l268.661018,0c54.677185,0 98.503906,-7.322815 131.511993,-21.653503c33.165405,-14.503906 58.992096,-36.834595 77.669281,-67.007874c18.661438,-30 28.157532,-61.496094 28.157532,-94.503906c0,-30.48822 -8.33075,-59.322815 -24.992126,-86.330719c-16.503906,-26.992096 -41.669312,-48.834595 -75.165405,-65.496094c43.322815,-12.661407 76.48822,-34.330688 99.826782,-64.834625c23.338623,-30.661377 34.992126,-66.834579 34.992126,-108.503983c0,-33.496094 -7.165344,-64.661392 -21.322815,-93.496094c-14.173157,-28.83461 -31.669312,-50.9921 -52.503906,-66.6614c-20.834595,-15.669298 -46.992065,-27.338598 -78.330688,-35.338599c-31.338593,-8 -69.842499,-12 -115.496002,-12l-273.007988,0l0.000198,-0.00023zm94.834404,415.008209l154.835007,0c41.826813,0 72,2.818909 90.330688,8.330719c24,7.165344 42.173218,18.992096 54.330719,35.669312c12.173187,16.661377 18.330688,37.496094 18.330688,62.48822c0,23.66925 -5.653534,44.677185 -16.992096,62.677185c-11.496094,18.157471 -27.826813,30.488159 -48.834595,37.165405c-21.165405,6.661377 -57.496094,10 -108.992004,10l-143.007996,0l0,-216.331024l-0.000412,0.000183zm0,-330.50399l178.172989,0c30.661407,0 52.157532,1.165352 64.48822,3.32283c21.842499,4 40,10.503899 54.677185,19.669304c14.661407,9.007866 26.661407,22.330704 36.157501,39.669296c9.338593,17.496094 14.173187,37.496094 14.173187,60.330704c0,26.6772 -6.834625,49.842484 -20.503876,69.669296c-13.669312,19.669312 -32.661407,33.496094 -56.992096,41.496094c-24.173218,7.842529 -59.165405,11.842499 -104.677002,11.842499l-165.496017,0l0,-245.999992l-0.000092,-0.000031z"
       id="path19" />
    <path
       d="m74.173203,0l0,715.827026l142.660995,0l169.338989,-506.819c15.653503,-47.181091 27.165405,-82.503899 34.157501,-105.999992c8.173248,25.999992 20.834625,64.330696 38.173218,114.818993l171.322998,498l127.512024,0l0,-715.827026l-91.338623,0l0,599.164978l-208,-599.164978l-85.496094,0l-207.008011,609.338989l0,-609.338989l-91.3228,0l-0.000198,0z"
       id="path23" />
    <path
       d="m587.827026,251.007996l94.834595,-24c-19.826782,-77.669296 -55.653503,-137.007996 -107.164978,-177.999996c-51.669312,-40.834599 -114.661011,-61.1811 -189.322998,-61.1811c-77.165405,0 -139.843018,15.669301 -188.173019,47.007901c-48.330688,31.496101 -85.165398,76.992096 -110.331009,136.50399c-25.165398,59.669296 -37.842487,123.668991 -37.842487,191.999985c0,74.48822 14.173199,139.496033 42.677204,194.992035c28.503899,55.496094 68.992096,97.669312 121.668991,126.503967c52.488205,28.834595 110.331009,43.165405 173.496017,43.165405c71.669281,0 131.826996,-18.173157 180.66098,-54.661377c48.834595,-36.503906 82.834595,-87.669312 102,-153.843018l-93.165405,-22c-16.661377,52.173218 -40.661377,90 -72.330688,113.843018c-31.496094,23.826782 -71.165405,35.669312 -119.165009,35.669312c-55.007904,0 -100.834991,-13.181091 -137.843002,-39.511841c-36.992096,-26.488159 -62.992096,-61.826782 -77.826797,-106.330963c-14.992096,-44.330719 -22.503906,-90.157501 -22.503906,-137.33902c0,-60.992096 8.834656,-114 26.503906,-159.496002c17.826797,-45.3228 45.338593,-79.3228 82.834595,-101.827003c37.496094,-22.503899 78,-33.669296 121.669006,-33.669296c52.992096,0 97.826813,15.3386 134.66098,45.826797c36.834595,30.677208 61.669312,76.173195 74.661438,136.345985l0.001587,0.001221z"
       id="path27" />
    <path
       d="m412.173004,280.834991l0,83.826813l303.165009,0.503937l0,-265.496017c-46.503906,-37.165405 -94.503906,-65.007893 -144,-83.842504c-49.51178,-18.66139 -100.330994,-28 -152.330994,-28c-70.346497,0 -134.345978,15.00791 -191.669006,45.1811c-57.51181,30 -100.834999,73.653507 -130.173004,130.488003c-29.3386,57.007904 -44,120.677017 -44,191.008011c0,69.669281 14.6614,134.66098 43.842499,194.992004c28.992104,60.503906 70.992096,105.338989 125.654007,134.677002c54.6772,29.165405 117.668991,43.826782 189.00798,43.826782c51.669312,0 98.503906,-8.330688 140.330994,-25.165405c41.826782,-16.661377 74.661438,-40 98.330688,-70c23.842529,-30 41.842529,-69.007874 54.33075,-117.164978l-85.496155,-23.496094c-10.834595,36.488159 -24.157471,65.165405 -40,86c-16,20.834595 -38.834595,37.496094 -68.503876,50c-29.496094,12.488159 -62.48819,18.834595 -98.48819,18.834595c-43.338593,0 -80.834595,-6.677185 -112.346008,-19.842529c-31.653503,-13.165405 -56.992096,-30.503906 -76.488205,-52c-19.338593,-21.496094 -34.330688,-44.992065 -45.16539,-70.834595c-18.173203,-44.157471 -27.338608,-92.157471 -27.338608,-144c0,-63.826782 10.992111,-117.164993 32.992111,-160.156982c22,-43.007904 54,-74.834602 96,-95.669296c42,-20.834595 86.503906,-31.3386 133.669006,-31.3386c41.165405,0 81.165405,8 120.173004,23.842506c39.165405,15.653496 68.661377,32.48819 88.834595,50.48819l0,133.339005l-210.330994,0l-0.000214,-0.000946z"
       id="path31" />
    <path
       d="m76.173203,0l0,715.827026l97.16539,0l376.000031,-562l0,562l90.834595,0l0,-715.827026l-97.165405,0l-376.000015,562.504028l0,-562.504028l-90.834595,0z"
       id="path35" />
    <path
       d="m79.165398,0l0,715.827026l517.495979,0l0,-84.48822l-422.834991,0l0,-219.164978l395.999969,0l0,-84l-395.999969,0l0,-243.668999l439.511993,0l0,-84.503899l-534.172981,0l0,-0.00093z"
       id="path39" />
    <path
       d="m281.669006,0l-277.338986,715.827026l102.676999,0l186,-520c14.992096,-41.653503 27.496094,-80.818893 37.496094,-117.164993c11.165405,39.007896 24,78 38.661407,117.164993l193.33902,520l96.661377,0l-280.330994,-715.827026l-97.165405,0l0.000488,0z"
       id="path43" />
    <path
       d="m45.0079,230l89.322803,7.826767c4.173233,-35.826797 14,-65.16539 29.496094,-88.157501c15.511795,-23.007896 39.511795,-41.496094 72,-55.669296c32.503891,-14.173203 69.181107,-21.165398 109.843002,-21.165398c36.157501,0 68,5.338577 95.669312,16c27.669281,10.834595 48.330688,25.496101 61.826782,44.173195c13.496094,18.818909 20.330688,39.165405 20.330688,61.3228c0,22.503906 -6.488159,42 -19.669281,58.83461c-12.992096,16.834579 -34.48819,30.834579 -64.330688,42.173172c-19.322815,7.496063 -61.669312,19.165405 -127.496033,34.992126c-65.669281,15.842499 -111.826996,30.677185 -138.172989,44.677185c-34.157501,17.826813 -59.653503,40.157501 -76.488197,66.661407c-16.6772,26.503906 -25.007904,56.157501 -25.007904,89.165405c0,36 10.173203,69.826782 30.6772,101.164978c20.488197,31.496094 50.488197,55.338623 89.826805,71.669312c39.496094,16.157471 83.16539,24.330688 131.339005,24.330688c53.165405,0 99.826782,-8.503906 140.488007,-25.669312c40.503906,-16.992065 71.669281,-42.157471 93.51181,-75.322754c21.653503,-33.181152 33.496094,-70.834595 35.165405,-112.835022l-90.834625,-6.834656c-5.007874,45.165405 -21.496094,79.496094 -49.669312,102.487976c-28.173187,23.181152 -69.669281,34.677246 -124.66098,34.677246c-57.338593,0 -99.007904,-10.503906 -125.339005,-31.496094c-26.173203,-21.007935 -39.338608,-46.346497 -39.338608,-75.842529c0,-25.826782 9.338593,-46.992096 27.842514,-63.496094c18.330688,-16.661407 65.826797,-33.669312 142.835007,-51.007904c76.992096,-17.496094 129.826996,-32.661407 158.488007,-45.653503c41.669312,-19.338593 72.503906,-43.669281 92.346497,-73.007904c19.826782,-29.496094 29.653503,-63.496094 29.653503,-101.826996c0,-38.173203 -10.834595,-74 -32.661438,-107.668999c-21.826782,-33.669296 -53.165344,-59.842495 -93.999969,-78.677197c-40.834595,-18.6614 -86.834595,-28 -137.826996,-28c-64.834595,0 -119.164993,9.33858 -162.835007,28.3465c-43.842499,18.834599 -78.173203,47.165398 -103.165001,85.165398c-24.834599,37.826805 -38,80.834602 -39.165398,128.660988l-0.001011,0.001404z"
       id="path47" />
    <path
       d="m259.338989,0l0,631.338989l-235.842999,0l0,84.48822l567.33897,0l0,-84.48822l-236.834991,0l0,-631.338989l-94.661407,0l0.000427,0z"
       id="path51" />
    <path
       d="m147.007996,0l-81.511803,0l0,715.827026l87.842491,0l0,-255.322998c37.165405,46.503906 84.488205,69.826782 142,69.826782c32,0 62.157501,-6.503906 90.661407,-19.322784c28.503906,-12.834595 51.826813,-31.007904 70.330719,-54.173187c18.330688,-23.338623 32.834564,-51.338623 43.165375,-84.330719c10.503906,-32.834595 15.669342,-68 15.669342,-105.338989c0,-88.992111 -22.000031,-157.669014 -66.000031,-206.157001c-43.826782,-48.5039 -96.661407,-72.677199 -158.156982,-72.677199c-61.181122,0 -109.181015,25.4961 -144.000015,76.677203l0,-65.007903l-0.000504,-0.00023zm-1.00737,263.165253c0,-62.157516 8.503952,-106.99202 25.338608,-134.660995c27.669296,-45.338608 65.16539,-68.000008 112.330994,-68.000008c38.503906,0 71.669312,16.6614 99.669312,50.157501c28,33.3386 42,83.007896 42,149.165001c0,67.669281 -13.51181,117.668976 -40.330719,149.842987c-26.834595,32.157501 -59.338593,48.330688 -97.338593,48.330688c-38.503891,0 -71.669296,-16.661377 -99.669296,-50c-28,-33.338593 -42,-81.669281 -42,-144.834991l-0.000305,-0.000183z"
       id="path55" />
    <path
       d="m86.834602,0l0,450.173004l-77.496102,0l0,68.330719l77.496102,0l0,55.165405c0,34.834595 3.165344,60.834595 9.338577,77.669312c8.48819,22.834595 23.3228,41.322754 44.6614,55.496094c21.338608,14.173157 51.165405,21.165405 89.669296,21.165405c24.661407,0 52,-2.834656 82,-8.834656l-13.165405,-76.661438c-18.173187,3.322815 -35.51178,4.992126 -51.842484,4.992126c-26.661407,0 -45.496109,-5.66925 -56.488205,-17.165405c-11.181107,-11.322754 -16.6772,-32.661377 -16.6772,-64l0,-47.826782l101.008011,0l0,-68.330719l-101.008011,0l0,-450.172985l-87.496101,0l0.000122,-0.00008z"
       id="path59" />
    <path
       d="m49.826801,-43.0079l85.511791,-12.6614c3.496063,-26.3307 13.496109,-45.496098 29.669312,-57.6693c21.826797,-16.157494 51.653503,-24.330696 89.3228,-24.330696c40.83461,0 72.173203,8.173233 94.330704,24.330696c22.173218,16.330704 37.007904,39.165398 44.834595,68.3307c4.677185,18 6.677185,55.5118 6.330719,112.835003c-38.330688,-45.165403 -86.157501,-67.826793 -143.496002,-67.826793c-71.322815,0 -126.503998,25.669299 -165.49601,77.165393c-39.0079,51.3386 -58.6614,113.165001 -58.6614,185.008003c0,49.496094 8.99213,95.165405 26.834602,136.992004c18,41.842499 44,74.173187 77.999992,97.007904c34,22.661407 74,34.157501 119.827026,34.157501c61.165375,0 111.668976,-24.834625 151.338989,-74.330719l0,62.503876l81.165405,0l0,-448.172981c0,-80.661401 -8.330719,-138 -24.677216,-171.669014c-16.48819,-33.669296 -42.48819,-60.330704 -78.157501,-79.826782c-35.669281,-19.496109 -79.496094,-29.338608 -131.668991,-29.338608c-61.826813,0 -111.827011,14 -149.827003,41.842499c-38.173195,27.826797 -56.503895,69.653503 -55.181095,125.654003l-0.000717,-0.001289zm72.677921,311.513271c0,-67.999985 13.496101,-117.668991 40.6614,-148.834999c27.007904,-31.3386 60.834595,-46.834602 101.495987,-46.834602c40.346497,0 74.173218,15.496101 101.512024,46.503899c27.322784,31.165398 40.992096,79.826805 40.992096,146.331017c0,63.496094 -14,111.338989 -42.157501,143.495972c-28.173218,32.173218 -62.173218,48.330719 -101.843018,48.330719c-38.992096,0 -72.157501,-15.826813 -99.669296,-47.669312c-27.3228,-31.653503 -40.992096,-78.818909 -40.992096,-141.322998l0.000404,0.000305z"
       id="path63" />
    <path
       d="m66,0l0,715.827026l87.826797,0l0,-256.819c41.007904,47.496094 92.83461,71.322784 155.339005,71.322784c38.330688,0 71.669312,-7.66925 100,-22.834595c28.330688,-14.992096 48.661407,-36 60.834595,-62.661377c12.173218,-26.661407 18.330688,-65.496124 18.330688,-116.173004l0,-328.661015l-88,0l0,328.661015c0,43.842499 -9.496033,75.842499 -28.503876,95.842499c-18.992096,20 -46,30.157501 -80.818909,30.157501c-26,0 -50.503906,-6.834656 -73.511795,-20.330719c-22.992111,-13.496094 -39.3228,-31.826782 -48.992111,-54.992096c-9.842514,-23.007904 -14.6772,-55.007904 -14.6772,-95.669281l0,-283.669019l-87.826797,0l-0.000397,-0.00072z"
       id="path67" />
    <path
       d="m64,0l0,715.827026l87.826797,0l0,-715.827026l-87.826797,0z"
       id="path71" />
    <path
       d="m66.330704,0l0,715.827026l88,0l0,-408.157013l207.999985,210.834991l113.669006,0l-198.173004,-192.330963l218.346008,-326.173022l-108.503998,0l-171.339005,265.164996l-62,-59.669281l0,-205.496005l-88.000008,0l0.001015,-0.00073z"
       id="path75" />
    <path
       d="m66,0l0,518.504028l79.007904,0l0,-73.669312c38.157501,56.992126 93.16539,85.496094 164.992004,85.496094c31.338593,0 60,-5.66925 86.173187,-16.834595c26.330719,-11.322784 45.826813,-26 58.834595,-44.330688c13.165405,-18.157501 22.157501,-39.826782 27.496124,-64.834595c3.165344,-16.330688 4.834625,-44.834595 4.834625,-85.496094l0,-318.834999l-88,0l0,315.49601c0,35.669281 -3.338562,62.503876 -10.173187,80.330688c-6.834656,17.669312 -18.992096,31.842499 -36.330688,42.346497c-17.496124,10.661407 -37.826813,16 -61.338623,16c-37.496094,0 -69.669281,-12 -96.992096,-35.669281c-27.16539,-23.842499 -40.6772,-68.834625 -40.6772,-135.33902l0,-283.165004l-87.826797,0l0.000153,0.00027z"
       id="path79" />
    <path
       d="m404.330994,190l86.330719,-11.338593c-9.322845,-59.496109 -33.496124,-106.157005 -72.48822,-139.827007c-38.834595,-33.6693 -86.677185,-50.50389 -143.338989,-50.50389c-70.83461,0 -128,23.16539 -171.008003,69.4961c-43.165401,46.3465 -64.818901,112.834995 -64.818901,199.511982c0,56 9.32283,104.992004 27.826797,146.992004c18.661407,42 46.834602,73.496124 84.83461,94.503906c37.826797,20.992096 79.16539,31.496124 123.669006,31.496124c56.330688,0 102.487976,-14.33075 138.156982,-42.834625c35.842499,-28.48819 58.834595,-68.834595 69.007904,-121.322998l-85.496124,-13.165405c-8.173218,34.818909 -22.503876,60.992096 -43.181091,78.661407c-20.661407,17.496094 -45.653503,26.330688 -74.992096,26.330688c-44.330704,0 -80.330704,-15.826782 -108,-47.669281c-27.669296,-31.669312 -41.496094,-81.826813 -41.496094,-150.503998c0,-69.653519 13.3228,-120.331009 40.157501,-152.000008c26.6772,-31.496101 61.511795,-47.3228 104.503998,-47.3228c34.503906,0 63.165405,10.6614 86.330688,31.826805c23.165405,21.165398 37.842499,53.669296 44,97.669281l0.001312,0.000305z"
       id="path83" />
    <path
       d="m33.165401,259.338989c0,96 26.6614,167.164978 80.173199,213.322998c44.488213,38.346497 98.834602,57.669312 162.991997,57.669312c71.338623,0 129.669006,-23.322815 174.835022,-70.157501c45.338593,-46.677216 67.842499,-111.165009 67.842499,-193.511993c0,-66.83461 -10,-119.323013 -30,-157.496017c-20,-38.330696 -49.181122,-67.999996 -87.338593,-89.165398c-38.330719,-21.165399 -80,-31.669299 -125.33902,-31.669299c-72.503891,0 -131.164978,23.165401 -175.999985,69.842502c-44.834602,46.488197 -67.165401,113.495995 -67.165401,201.165001l0.000282,0.000397zm90.330418,-0.000397c0,-66.503906 14.503906,-116.173004 43.511795,-149.165001c28.992111,-33.165405 65.496109,-49.6693 109.323013,-49.6693c43.669281,0 80,16.661396 109.007996,49.826801c28.834595,33.165398 43.322784,83.842491 43.322784,151.84301c0,64.157501 -14.48819,112.834991 -43.653473,145.826996c-29.181122,33.007904 -65.338623,49.496094 -108.677002,49.496094c-43.826813,0 -80.330719,-16.48819 -109.323013,-49.322815c-29.007904,-32.834595 -43.511803,-82.503876 -43.511803,-148.834991l-0.000298,-0.000793z"
       id="path87" />
    <path
       d="m404.330994,64c-32.661407,-27.6693 -64,-47.1654 -94,-58.6614c-30.157501,-11.3386 -62.503891,-17.0079 -96.992111,-17.0079c-57.007889,0 -100.676994,13.8425 -131.338989,41.6693c-30.503902,27.826801 -45.826813,63.496101 -45.826813,106.660995c0,25.51181 5.653538,48.6772 17.3228,69.669312c11.511803,21.007889 26.6772,37.842499 45.3386,50.503891c18.834602,12.661407 39.826805,22.330688 63.3386,28.834595c17.165405,4.503937 43.165405,8.992126 78,13.165405c70.992111,8.503937 123.323013,18.503906 156.835007,30.330688c0.330719,12 0.48819,19.669312 0.48819,22.834625c0,35.826782 -8.330719,61.165375 -24.992096,75.669281c-22.330688,20 -55.842499,29.826782 -100,29.826782c-41.338608,0 -71.842499,-7.165344 -91.669296,-21.669281c-19.669312,-14.48819 -34.173187,-40.157501 -43.669312,-76.992096l-85.826782,11.826782c7.826771,36.677216 20.6614,66.503906 38.488197,89.007904c17.842499,22.661407 43.842506,40.157501 77.669289,52.330719c33.842499,12.173187 73.007904,18.330658 117.669006,18.330658c44.330688,0 80.173218,-5.322815 107.842987,-15.66925c27.653503,-10.48822 48,-23.496124 61.165405,-39.322815c12.992126,-15.842499 22,-35.669312 27.322815,-59.842499c2.834656,-14.992096 4.330719,-42 4.330719,-80.992126l0,-117.164993c0,-81.842484 1.842499,-133.511986 5.669281,-155.007988c3.669281,-21.6693 11.165405,-42.503899 22.173187,-62.330699l-91.842499,0c-8.992126,18.1732 -14.992096,39.496101 -17.496094,63.999999l-0.000092,0.000111zm-7.322723,196.330872c-32,-13.16539 -79.842499,-24.157486 -143.512009,-33.322784c-36.157501,-5.181107 -61.826797,-11.007904 -76.661407,-17.51181c-15.007889,-6.48819 -26.661377,-16 -34.661377,-28.661392c-8.173248,-12.503906 -12.346512,-26.330704 -12.346512,-41.669312c0,-23.496094 9.007858,-42.992096 26.6772,-58.661392c17.669312,-15.496101 43.669312,-23.3386 77.826797,-23.3386c33.842499,0 64,7.338577 90.330719,22.173203c26.346497,14.834595 45.842468,35.165398 58.173187,60.834602c9.496063,19.826797 14.173187,49.16539 14.173187,87.826797l0,32.330688l0.000214,0z"
       id="path91" />
    <path
       d="m66,0l0,518.504028l78.503906,0l0,-72.677185c16.330688,25.338593 38,45.842499 64.992096,61.181091c27.007904,15.496094 57.842499,23.322815 92.330719,23.322815c38.346497,0 69.842468,-8 94.346466,-24.000031c24.661407,-16 42,-38.157501 52,-66.834595c41.165405,60.503906 94.48819,90.834625 160.157013,90.834625c51.496094,0 91.007874,-14.33075 118.677002,-42.834625c27.653503,-28.48819 41.496094,-72.330719 41.496094,-131.496002l0,-355.999992l-87.338623,0l0,326.661003c0,35.165405 -2.834595,60.503906 -8.503906,76c-5.826782,15.338593 -16.157532,27.842499 -30.992126,37.338593c-15.007874,9.338593 -32.661377,14.173218 -52.834595,14.173218c-36.503845,0 -66.661377,-12.173218 -90.834595,-36.503906c-24,-24.173187 -36.173187,-63.007904 -36.173187,-116.330994l0,-301.338993l-87.826782,0l0,336.834995c0,39.165405 -7.165375,68.503906 -21.496124,88c-14.330688,19.496094 -37.669281,29.338593 -70.330688,29.338593c-24.677216,0 -47.51181,-6.503937 -68.503891,-19.669312c-21.007919,-13.007874 -36.330704,-32 -45.669312,-57.007874c-9.496063,-25.165405 -14.173203,-61.322815 -14.173203,-108.488007l0,-269.008006l-87.82679,0l0.000526,0.00056z"
       id="path95" />
    <path
       d="m402.330994,0l0,65.496101c-32.834595,-51.496101 -81.165405,-77.165401 -144.992004,-77.165401c-41.338593,0 -79.338593,11.3386 -114,34.173201c-34.6772,22.661398 -61.511803,54.503897 -80.6772,95.496099c-18.9921,40.834595 -28.488197,87.669296 -28.488197,140.835022c0,51.669281 8.661419,98.661377 25.826797,140.834991c17.3386,42.157501 43.165398,74.503906 77.669304,96.834595c34.503891,22.503937 73.16539,33.826813 115.826996,33.826813c31.16539,0 59.007889,-6.661438 83.338608,-19.826813c24.503906,-13.165375 44.330688,-30.330688 59.669281,-51.496094l0,256.819l87.322815,0l0,-715.827025l-81.496094,0l-0.000305,-0.00049zm-277.826706,258.83548c0,-66.503891 14,-116.172989 42,-149.007988c28,-32.818901 60.992096,-49.322803 99.16539,-49.322803c38.330719,0 70.992126,15.826801 97.826813,47.165401c26.834595,31.338608 40.330688,79.338608 40.330688,143.826996c0,71.007889 -13.653503,123.008011 -40.992096,156.173019c-27.338593,33.338593 -61.007904,49.826782 -101.164978,49.826782c-39.007919,0 -71.669312,-16 -97.842514,-47.826782c-26.157501,-31.842529 -39.3228,-82.173218 -39.3228,-150.835022l-0.000504,0.000397z"
       id="path99" />
    <path
       d="m66.330704,614.661011l0,101.164978l88,0l0,-101.164978l-88,0zm0,-614.661011l0,518.504028l88,0l0,-518.504028l-88,0z"
       id="path103" />
    <path
       d="m420.834991,167.007996l90.834595,-11.181091c-14.330688,-53.165413 -40.834595,-94.330715 -79.496094,-123.654003c-38.834595,-29.165401 -88.346497,-43.842501 -148.503998,-43.842501c-75.842499,0 -136,23.338599 -180.330994,69.999998c-44.503902,46.6772 -66.6772,112.172989 -66.6772,196.503998c0,87.338608 22.503899,154.991989 67.3386,203.164993c45.007896,48.173187 103.165001,72.330688 174.834999,72.330688c69.338623,0 126,-23.669281 169.826996,-70.834595c44,-47.165405 66.000031,-113.669006 66.000031,-199.164978c0,-5.32283 -0.157532,-13.165405 -0.48822,-23.496109l-386.676994,0c3.165352,-57.007889 19.3386,-100.661011 48.330696,-130.835007c29.007904,-30.330696 65.007904,-45.496101 108.345993,-45.496101c32.157501,0 59.653503,8.503944 82.48822,25.496101c22.834595,16.834602 40.834595,43.826797 54.173187,81.007904l0.000183,0.000702zm-288.504181,142.156281l289.496002,0c-3.826782,43.496094 -14.992096,76.330719 -33.165405,98c-28,33.842499 -64.330688,50.834595 -108.834991,50.834595c-40.330704,0 -74.330704,-13.496094 -101.827011,-40.503876c-27.496094,-26.992126 -42.661392,-63.165405 -45.669296,-108.331024l0.000702,0.000305z"
       id="path107" />
    <path
       d="m62,-199.669006l-9.826771,82.503899c19.322803,-5.165352 36.000004,-7.842522 50.3307,-7.842522c19.496101,0 35.165398,3.338577 46.834602,9.842522c11.826797,6.503937 21.3228,15.496101 28.834595,27.3386c5.653549,8.661415 14.488205,30.488197 26.83461,65.322798c1.653534,5.00787 4.330704,12 7.826767,21.4961l-196.661003,519.512004l94.6614,0l108,-300.172989c13.826797,-38.157501 26.503906,-78.157501 37.496124,-120.156998c10.173187,40.330704 22.173187,79.653519 36.173187,118.156998l110.834991,302.172989l87.826782,0l-197.164978,-527.338964c-21.165405,-56.992098 -37.669312,-96.173212 -49.338593,-117.669001c-15.653503,-28.992096 -33.496109,-50.157501 -53.653503,-63.669296c-20.346497,-13.496109 -44.346497,-20.330704 -72.346504,-20.330704c-16.992096,0 -35.826797,3.669296 -56.661396,10.834595l-0.001011,-0.000031z"
       id="path111" />
    <path
       d="m257.826996,78.6614l12.677216,-77.6535c-24.677216,-5.1811 -46.83461,-7.84252 -66.330719,-7.84252c-32,0 -56.6772,5.00787 -74.346497,15.1654c-17.496094,10 -29.826797,23.3386 -36.992096,39.842491c-7.165352,16.330696 -10.834602,50.992096 -10.834602,103.653999l0,298.346008l-64.503897,0l0,68.330688l64.503897,0l0,128.504028l87.496101,52.661377l0,-181.164978l88.330688,0l0,-68.330719l-88.330688,0l0,-303.164993c0,-25.181099 1.51181,-41.181099 4.503937,-48.346504c3.165359,-7.165344 8.173233,-12.834595 15.165405,-17.165398c7.007874,-4.157478 17.007904,-6.330711 30,-6.330711c9.842514,0 22.661392,1.165352 38.661407,3.496063l-0.000153,-0.000732z"
       id="path115" />
    <path
       d="m30.8346,154.835007l86.834597,13.669296c4.834656,-34.834595 18.503899,-61.496094 40.834602,-80.173203c22.157501,-18.503899 53.3228,-27.826801 93.496094,-27.826801c40.330704,0 70.330704,8.330723 89.826797,24.661404c19.51181,16.503906 29.338623,35.842499 29.338623,57.842491c0,20 -8.661438,35.496109 -26,46.992111c-12,7.826767 -42,17.669296 -89.826813,29.669296c-64.330704,16.330704 -109.165009,30.330704 -134,42.330704c-24.834602,11.826782 -43.842499,28.330688 -56.6772,49.338593c-12.834602,20.992096 -19.3228,44.157501 -19.3228,69.496094c0,23.165405 5.32283,44.503906 16,64.173218c10.488197,19.826813 24.992096,36.157501 43.165398,49.165405c13.669304,10 32.330696,18.661407 55.826805,25.653473c23.669312,7.007874 49.007904,10.503906 76,10.503906c40.6772,0 76.330704,-6 107.164993,-17.669312c30.834625,-11.653473 53.51181,-27.496063 68.173218,-47.496063c14.661407,-20.157501 24.661407,-46.834595 30.157501,-80.330719l-85.826813,-11.826813c-4,26.661407 -15.338593,47.496124 -34,62.48822c-18.661407,15.007904 -45.165405,22.503906 -79.338593,22.503906c-40.330704,0 -69.165405,-6.661438 -86.330704,-20c-17.3228,-13.338623 -26,-28.992126 -26,-46.834595c0,-11.496094 3.669296,-21.669312 10.83461,-30.834595c7.165344,-9.496094 18.330688,-17.165405 33.669296,-23.496124c8.834641,-3.165344 34.661392,-10.661377 77.669281,-22.330688c62.157516,-16.677216 105.496017,-30.173187 130.000015,-40.834595c24.661377,-10.503906 44,-26 58,-46.173203c14,-20.157501 20.992096,-45.165405 20.992096,-75.165405c0,-29.3228 -8.661438,-56.834602 -25.669312,-82.834602c-17.165405,-25.826797 -41.826782,-45.826797 -74,-59.999996c-32.157501,-14.1575 -68.661407,-21.165401 -109.322983,-21.165401c-67.496109,0 -118.835007,14 -154.173012,42.000001c-35.3228,27.999998 -57.826797,69.496099 -67.496099,124.503996l0.000401,0z"
       id="path119" />
    <path
       d="m66,-198.660995l0,717.164963l80,0l0,-67.338593c18.834595,26.330719 40.173203,46.173218 64,59.338593c23.669296,13.165405 52.503906,19.826782 86.330688,19.826782c44.330719,0 83.338623,-11.496094 117.165009,-34.157471c34,-22.834595 59.51181,-55.007904 76.677216,-96.503906c17.322784,-41.496094 26,-87.007874 26,-136.503998c0,-52.992096 -9.51181,-100.834991 -28.677216,-143.338997c-18.992096,-42.488197 -46.661407,-74.992096 -82.992096,-97.653498c-36.330688,-22.5039 -74.503906,-33.842501 -114.503998,-33.842501c-29.338593,0 -55.496109,6.173231 -78.83461,18.503901c-23.338593,12.3307 -42.330688,28.000002 -57.338593,46.8346l0,-252.331005l-87.826797,0l0.000397,0.001129zm79.495697,454.990891c0,-66.661407 13.51181,-116 40.503906,-148.000008c27.007904,-31.826797 59.826797,-47.826797 98.173218,-47.826797c38.992096,0 72.48819,16.503899 100.330994,49.669304c27.826782,32.992096 41.826782,84.157501 41.826782,153.496002c0,66.157501 -13.669281,115.496002 -40.834595,148.503998c-27.165405,32.834595 -59.669281,49.322784 -97.322784,49.322784c-37.51181,0 -70.6772,-17.496094 -99.51181,-52.48819c-28.834595,-35.007904 -43.16539,-86 -43.16539,-152.677002l-0.00032,-0.000092z"
       id="path123" />
    <path
       d="m65.007896,0l0,518.504028l78.992104,0l0,-78.503906c20.173203,36.661407 38.834595,61.007904 56,72.661438c17.007904,11.66925 35.826797,17.66925 56.330688,17.66925c29.669312,0 59.669312,-9.496033 90.330719,-28.330688l-30.330719,-81.669281c-21.322784,12.834595 -42.834564,19.165375 -64.330688,19.165375c-19.338593,0 -36.503906,-5.826752 -51.826797,-17.322784c-15.338608,-11.669312 -26.173203,-27.669312 -32.6772,-48.173187c-9.826767,-31.165405 -14.661407,-65.338623 -14.661407,-102.503998l0,-271.496016l-87.826797,0l0.000099,-0.00023z"
       id="path127" />
    <path
       d="m405.826996,0l0,76.173203c-40.48822,-58.677202 -95.322784,-87.842503 -164.660995,-87.842503c-30.503906,0 -59.165405,5.84252 -85.669296,17.4961c-26.488205,11.6693 -46.157501,26.5039 -58.992104,44.1732c-13.007904,17.826797 -22,39.496101 -27.165398,65.165398c-3.51181,17.3386 -5.338585,44.6614 -5.338585,82.173195l0,321.165009l87.826805,0l0,-287.495987c0,-46 1.842514,-76.83461 5.338577,-92.83461c5.669296,-23.165398 17.338593,-41.165405 35.165405,-54.503891c18,-13.165405 40.173187,-19.669304 66.503891,-19.669304c26.330688,0 50.992096,6.661423 74.173218,20.173203c23.165375,13.496101 39.496094,32 48.992096,55.165398c9.669281,23.3228 14.503876,57.165405 14.503876,101.322998l0,277.842987l87.826813,0l0,-518.504025l-78.503906,0l-0.000397,-0.00037z"
       id="path131" />
    <path
       d="m74.6614,0l0,487.826996c0,59.51181 7.338577,105.33902 21.842499,137.33902c14.503899,32.173157 38.6614,57.338562 72.503899,75.496094c33.826797,18.173218 71.826797,27.338562 114.156998,27.338562c56.330719,0 100.661011,-14 132.834991,-42.173157c32.173218,-28.157532 48.330719,-60.818909 48.330719,-98c0,-16.48822 -2.834656,-33.653503 -8.834656,-51.165405c-5.826782,-17.653503 -16.157501,-39.496124 -31.165405,-65.653503c-14.992096,-26.346497 -24.503906,-44.503906 -28.330688,-54.677216c-3.826782,-10.330688 -5.826782,-19.322784 -5.826782,-27.165405c0,-10.503876 3.496063,-20.661377 10.661407,-30.834595c6.834656,-10.330688 26.503906,-26.157501 59.165405,-47.322784c44.173187,-29.007904 73.669281,-52.173218 88.330719,-69.842499c20.834595,-24.992111 31.338562,-54.661407 31.338562,-88.83461c0,-45.165398 -16.834595,-84 -50.173157,-116.156998c-33.322815,-32.346499 -76.000031,-48.346499 -128.157013,-48.346499c-41.007904,0 -77.007904,11.0079 -107.843018,33.007899c-30.992096,21.826801 -53.999985,50.173203 -69.322784,84.6614l75.653503,35.165405c16.173187,-30.330704 32.503876,-51.322807 48.834595,-62.992104c16.173187,-11.669304 33.338593,-17.6693 51.165405,-17.6693c24.834595,0 46,8.503941 63.51178,25.496098c17.669312,16.834602 26.330719,36.6772 26.330719,59.511803c0,18.330704 -5.165344,33.826797 -15.496094,46.818893c-6.834656,8.503952 -25.165405,22.83461 -54.677216,43.007904c-54.157501,37.165405 -87.496094,64.992096 -100.157013,83.496094c-13.007874,18.503906 -19.51178,37.669312 -19.51178,57.165405c0,12.677216 2.173218,25.51181 6.503937,38.503906c4.503937,13.165405 15.007904,34 31.842499,62.503906c16.661407,28.661377 27.653503,50.157471 32.992096,64.503906c5.165344,14.330688 7.669281,26.992065 7.669281,38.157471c0,20.173218 -8.834625,38 -26.503876,53.338623c-17.826813,15.496094 -41.496124,23.322815 -70.992126,23.322815c-34.834579,0 -63.338593,-10.818909 -85.51178,-32.33075c-22.157501,-21.496094 -33.165405,-68 -33.165405,-139.668976l0,-483.827l-88,0l-0.000221,-0.0014z"
       id="path135" />
    <path
       d="m404.330994,64c-32.661407,-27.6693 -64,-47.1654 -94,-58.6614c-30.157501,-11.3386 -62.503891,-17.0079 -96.992111,-17.0079c-57.007889,0 -100.676994,13.8425 -131.338989,41.6693c-30.503902,27.826801 -45.826813,63.496101 -45.826813,106.660995c0,25.51181 5.653538,48.6772 17.3228,69.669312c11.511803,21.007889 26.6772,37.842499 45.3386,50.503891c18.834602,12.661407 39.826805,22.330688 63.3386,28.834595c17.165405,4.503937 43.165405,8.992126 78,13.165405c70.992111,8.503937 123.323013,18.503906 156.835007,30.330688c0.330719,12 0.48819,19.669312 0.48819,22.834625c0,35.826782 -8.330719,61.165375 -24.992096,75.669281c-22.330688,20 -55.842499,29.826782 -100,29.826782c-41.338608,0 -71.842499,-7.165344 -91.669296,-21.669281c-19.669312,-14.48819 -34.173187,-40.157501 -43.669312,-76.992096l-85.826782,11.826782c7.826771,36.677216 20.6614,66.503906 38.488197,89.007904c17.842499,22.661407 43.842506,40.157501 77.669289,52.330719c33.842499,12.173187 73.007904,18.330658 117.669006,18.330658c44.330688,0 80.173218,-5.322815 107.842987,-15.66925c27.653503,-10.48822 48,-23.496124 61.165405,-39.322815c12.992126,-15.842499 22,-35.669312 27.322815,-59.842499c2.834656,-14.992096 4.330719,-42 4.330719,-80.992126l0,-117.164993c0,-81.842484 1.842499,-133.511986 5.669281,-155.007988c3.669281,-21.6693 11.165405,-42.503899 22.173187,-62.330699l-91.842499,0c-8.992126,18.1732 -14.992096,39.496101 -17.496094,63.999999l-0.000092,0.000111zm-7.322723,196.330872c-32,-13.16539 -79.842499,-24.157486 -143.512009,-33.322784c-36.157501,-5.181107 -61.826797,-11.007904 -76.661407,-17.51181c-15.007889,-6.48819 -26.661377,-16 -34.661377,-28.661392c-8.173248,-12.503906 -12.346512,-26.330704 -12.346512,-41.669312c0,-23.496094 9.007858,-42.992096 26.6772,-58.661392c17.669312,-15.496101 43.669312,-23.3386 77.826797,-23.3386c33.842499,0 64,7.338577 90.330719,22.173203c26.346497,14.834595 45.842468,35.165398 58.173187,60.834602c9.496063,19.826797 14.173187,49.16539 14.173187,87.826797l0,32.330688l0.000214,0zm-258.835007,359.843018l0,100l91.826797,0l0,-100l-91.826797,0zm182.000015,0l0,100l91.826782,0l0,-100l-91.826782,0z"
       id="path139" />
    <style
       type="text/css"
       id="style1299" />
    <linearGradient
       gradientUnits="userSpaceOnUse"
       id="id1"
       y2="1262.64"
       x2="153.812"
       y1="1057.9399"
       x1="530.89001">
      <stop
         stop-color="#f7c5b4"
         id="stop146"
         offset="0" />
      <stop
         stop-color="#ffffff"
         id="stop148"
         offset="1" />
    </linearGradient>
    <linearGradient
       gradientUnits="userSpaceOnUse"
       id="id2"
       y2="1284.28"
       x2="2173.99"
       y1="1152.97"
       x1="1780.05" />
    <linearGradient
       gradientUnits="userSpaceOnUse"
       id="id3"
       y2="493.65701"
       x2="1108.0601"
       y1="1189.77"
       x1="643.98602">
      <stop
         stop-color="#e87877"
         id="stop152"
         offset="0" />
      <stop
         stop-color="#e87877"
         id="stop154"
         offset="0.219608" />
      <stop
         stop-color="#f4e6e2"
         id="stop156"
         offset="1" />
    </linearGradient>
    <linearGradient
       gradientUnits="userSpaceOnUse"
       id="id4"
       y2="465.67999"
       x2="1548.52"
       y1="1110.9"
       x1="1118.37" />
    <linearGradient
       gradientUnits="userSpaceOnUse"
       id="id5"
       y2="459.207"
       x2="1331.04"
       y1="1073.1899"
       x1="921.71301" />
    <linearGradient
       gradientUnits="userSpaceOnUse"
       id="id6"
       y2="491.86401"
       x2="1781.5699"
       y1="1187.6"
       x1="1317.75" />
    <linearGradient
       gradientUnits="userSpaceOnUse"
       id="id7"
       y2="2231.77"
       x2="433.72699"
       y1="2367.46"
       x1="352.31">
      <stop
         stop-color="#75c5f0"
         id="stop162"
         offset="0" />
      <stop
         stop-color="#ffffff"
         id="stop164"
         offset="1" />
    </linearGradient>
    <linearGradient
       gradientUnits="userSpaceOnUse"
       id="id8"
       y2="2742.75"
       x2="1685.99"
       y1="2909.49"
       x1="1585.95" />
    <linearGradient
       gradientUnits="userSpaceOnUse"
       id="id9"
       y2="2345.6699"
       x2="469.97699"
       y1="2495.8501"
       x1="379.87201" />
    <linearGradient
       gradientUnits="userSpaceOnUse"
       id="id10"
       y2="2045.52"
       x2="2048.01"
       y1="2223.74"
       x1="1941.0699" />
    <linearGradient
       gradientUnits="userSpaceOnUse"
       id="id11"
       y2="2502.22"
       x2="451.452"
       y1="2663.27"
       x1="354.82001" />
    <linearGradient
       gradientUnits="userSpaceOnUse"
       id="id12"
       y2="2116.6201"
       x2="453.11401"
       y1="2295.5801"
       x1="345.737">
      <stop
         stop-color="#75c5f0"
         id="stop171"
         offset="0" />
      <stop
         stop-color="#ffffff"
         id="stop173"
         offset="0.580392" />
      <stop
         stop-color="#ffffff"
         id="stop175"
         offset="1" />
    </linearGradient>
    <linearGradient
       gradientUnits="userSpaceOnUse"
       id="id13"
       y2="2161.3501"
       x2="2045.13"
       y1="2357.1799"
       x1="1927.63" />
    <linearGradient
       gradientUnits="userSpaceOnUse"
       id="id14"
       y2="2826.29"
       x2="805.27502"
       y1="2938.1499"
       x1="738.164" />
    <linearGradient
       gradientUnits="userSpaceOnUse"
       id="id15"
       y2="2800.03"
       x2="1034.53"
       y1="2953.1299"
       x1="942.66699" />
    <linearGradient
       gradientUnits="userSpaceOnUse"
       id="id16"
       y2="2765.54"
       x2="1415.4399"
       y1="2959.02"
       x1="1299.35" />
    <linearGradient
       gradientUnits="userSpaceOnUse"
       id="id17"
       y2="1106.61"
       x2="1180.63"
       y1="2845.5601"
       x1="1180.63">
      <stop
         stop-color="#f4dcd5"
         id="stop182"
         offset="0" />
      <stop
         stop-color="#f4dcd5"
         id="stop184"
         offset="0.729412" />
      <stop
         stop-color="#605d5c"
         id="stop186"
         offset="1" />
    </linearGradient>
    <radialGradient
       gradientUnits="userSpaceOnUse"
       id="id18"
       fy="2207.0901"
       fx="1163.26"
       r="992.91803"
       cy="2207.0901"
       cx="1163.26">
      <stop
         stop-color="#838281"
         id="stop189"
         offset="0" />
      <stop
         stop-color="#ffffff"
         id="stop191"
         offset="1" />
    </radialGradient>
    <linearGradient
       xlink:href="#id1"
       id="linearGradient7777"
       y2="0.771006"
       x2="-0.162747"
       y1="0.214314"
       x1="1.179804" />
    <linearGradient
       gradientTransform="matrix(1.1690965,0,0,1.1690965,-141.85305,-274.62231)"
       gradientUnits="userSpaceOnUse"
       xlink:href="#id1"
       id="linearGradient7833"
       y2="1220.0726"
       x2="2158.3237"
       y1="1220.0726"
       x1="1795.7166" />
    <linearGradient
       gradientTransform="matrix(1.1690965,0,0,1.1690965,-141.85305,-274.62231)"
       gradientUnits="userSpaceOnUse"
       xlink:href="#id7"
       id="linearGradient7855"
       y2="2827.6108"
       x2="1742.5552"
       y1="2827.6108"
       x1="1524.9658" />
    <linearGradient
       gradientTransform="matrix(1.1690965,0,0,1.1690965,-141.85305,-274.62231)"
       gradientUnits="userSpaceOnUse"
       xlink:href="#id7"
       id="linearGradient7858"
       y2="2861.9641"
       x2="1474.5833"
       y1="2861.9641"
       x1="1244.4045" />
    <linearGradient
       gradientTransform="matrix(1.1690965,0,0,1.1690965,-141.85305,-274.62231)"
       gradientUnits="userSpaceOnUse"
       xlink:href="#id7"
       id="linearGradient7861"
       y2="2878.2959"
       x2="1083.807"
       y1="2878.2959"
       x1="896.51111" />
    <linearGradient
       gradientTransform="matrix(1.1690965,0,0,1.1690965,-141.85305,-274.62231)"
       gradientUnits="userSpaceOnUse"
       xlink:href="#id7"
       id="linearGradient7871"
       y2="2882.6169"
       x2="852.97131"
       y1="2882.6169"
       x1="691.21912" />
    <linearGradient
       gradientTransform="matrix(1.1690965,0,0,1.1690965,-141.85305,-274.62231)"
       gradientUnits="userSpaceOnUse"
       xlink:href="#id7"
       id="linearGradient7874"
       y2="2261.1477"
       x2="2111.3442"
       y1="2261.1477"
       x1="1865.1486" />
    <linearGradient
       gradientTransform="matrix(1.1690965,0,0,1.1690965,-141.85305,-274.62231)"
       gradientUnits="userSpaceOnUse"
       xlink:href="#id7"
       id="linearGradient7877"
       y2="2583.2725"
       x2="507.77261"
       y1="2583.2725"
       x1="297.65381" />
    <linearGradient
       gradientTransform="matrix(1.1690965,0,0,1.1690965,-141.85305,-274.62231)"
       gradientUnits="userSpaceOnUse"
       xlink:href="#id7"
       id="linearGradient7880"
       y2="2420.542"
       x2="524.3053"
       y1="2420.542"
       x1="320.34158" />
    <linearGradient
       gradientTransform="matrix(1.1690965,0,0,1.1690965,-141.85305,-274.62231)"
       gradientUnits="userSpaceOnUse"
       xlink:href="#id7"
       id="linearGradient7883"
       y2="2231.77"
       x2="433.72699"
       y1="2367.46"
       x1="352.31" />
    <linearGradient
       gradientTransform="matrix(1.1690965,0,0,1.1690965,-141.85305,-274.62231)"
       gradientUnits="userSpaceOnUse"
       xlink:href="#id7"
       id="linearGradient7886"
       y2="2134.6685"
       x2="2100.8428"
       y1="2134.6685"
       x1="1881.8184" />
    <linearGradient
       gradientTransform="matrix(1.1690965,0,0,1.1690965,-141.85305,-274.62231)"
       gradientUnits="userSpaceOnUse"
       xlink:href="#id12"
       id="linearGradient7889"
       y2="2116.6201"
       x2="453.11401"
       y1="2295.5801"
       x1="345.737" />
    <radialGradient
       gradientTransform="matrix(1.1690965,0,0,1.1690965,-141.85305,-274.62231)"
       gradientUnits="userSpaceOnUse"
       xlink:href="#id18"
       id="radialGradient7897"
       fy="2207.0901"
       fx="1163.26"
       r="992.91803"
       cy="2207.0901"
       cx="1163.26" />
    <linearGradient
       gradientTransform="matrix(1.1690965,0,0,1.1690965,-141.85305,-274.62231)"
       gradientUnits="userSpaceOnUse"
       xlink:href="#linearGradient3621"
       id="linearGradient7909"
       y2="493.65701"
       x2="1108.0601"
       y1="1189.77"
       x1="643.98602" />
    <linearGradient
       gradientTransform="matrix(1.1690965,0,0,1.1690965,-141.85305,-274.62231)"
       gradientUnits="userSpaceOnUse"
       xlink:href="#linearGradient3621"
       id="linearGradient7912"
       y2="768.77417"
       x2="1245.9065"
       y1="768.77417"
       x1="1001.6875" />
    <linearGradient
       gradientTransform="matrix(1.1690965,0,0,1.1690965,-141.85305,-274.62231)"
       gradientUnits="userSpaceOnUse"
       xlink:href="#linearGradient3621"
       id="linearGradient7915"
       y2="792.44281"
       x2="1523.681"
       y1="792.44281"
       x1="1140.8575" />
    <linearGradient
       gradientTransform="matrix(1.1690965,0,0,1.1690965,-141.85305,-274.62231)"
       gradientUnits="userSpaceOnUse"
       xlink:href="#linearGradient3621"
       id="linearGradient7918"
       y2="836.51538"
       x2="1851.5847"
       y1="836.51538"
       x1="1253.8597" />
    <linearGradient
       gradientTransform="matrix(1.1690965,0,0,1.1690965,-141.85305,-274.62231)"
       gradientUnits="userSpaceOnUse"
       xlink:href="#id17"
       id="linearGradient7925"
       y2="1106.61"
       x2="1180.63"
       y1="2845.5601"
       x1="1180.63" />
    <linearGradient
       xlink:href="#id1"
       id="linearGradient8319"
       y2="0.5"
       x2="1.005812"
       y1="0.5"
       x1="-0.005812" />
    <linearGradient
       xlink:href="#id7"
       id="linearGradient8341"
       y2="0.499998"
       x2="1.002076"
       y1="0.499998"
       x1="-0.002077" />
    <linearGradient
       xlink:href="#id7"
       id="linearGradient8344"
       y2="0.499998"
       x2="1.001962"
       y1="0.499998"
       x1="-0.001963" />
    <linearGradient
       xlink:href="#id7"
       id="linearGradient8347"
       y2="0.5"
       x2="1.002413"
       y1="0.5"
       x1="-0.002414" />
    <linearGradient
       xlink:href="#id7"
       id="linearGradient8357"
       y2="0.499997"
       x2="1.002797"
       y1="0.499997"
       x1="-0.002797" />
    <linearGradient
       xlink:href="#id7"
       id="linearGradient8360"
       y2="0.499999"
       x2="1.001834"
       y1="0.499999"
       x1="-0.001834" />
    <linearGradient
       xlink:href="#id7"
       id="linearGradient8363"
       y2="0.5"
       x2="1.002151"
       y1="0.5"
       x1="-0.002151" />
    <linearGradient
       xlink:href="#id7"
       id="linearGradient8366"
       y2="0.500001"
       x2="1.002216"
       y1="0.500001"
       x1="-0.002216" />
    <linearGradient
       xlink:href="#id7"
       id="linearGradient8369"
       y2="-0.779903"
       x2="0.745237"
       y1="1.702154"
       x1="0.29105" />
    <linearGradient
       xlink:href="#id7"
       id="linearGradient8372"
       y2="0.5"
       x2="1.002063"
       y1="0.5"
       x1="-0.002063" />
    <linearGradient
       xlink:href="#id12"
       id="linearGradient8375"
       y2="-0.347636"
       x2="0.742217"
       y1="1.34476"
       x1="0.253597" />
    <radialGradient
       gradientTransform="matrix(1.1690965,0,0,1.1690965,-141.85305,-274.62231)"
       gradientUnits="userSpaceOnUse"
       xlink:href="#id18"
       id="radialGradient8383"
       fy="2207.0901"
       fx="1163.26"
       r="992.91803"
       cy="2207.0901"
       cx="1163.26" />
    <linearGradient
       xlink:href="#linearGradient3621"
       id="linearGradient8395"
       y2="-0.053015"
       x2="0.93544"
       y1="1.035054"
       x1="0.044714" />
    <linearGradient
       xlink:href="#linearGradient3621"
       id="linearGradient8398"
       y2="0.5"
       x2="1.008678"
       y1="0.5"
       x1="-0.008678" />
    <linearGradient
       xlink:href="#linearGradient3621"
       id="linearGradient8401"
       y2="0.5"
       x2="1.005501"
       y1="0.5"
       x1="-0.005502" />
    <linearGradient
       xlink:href="#linearGradient3621"
       id="linearGradient8404"
       y2="0.5"
       x2="1.00351"
       y1="0.5"
       x1="-0.00351" />
    <linearGradient
       xlink:href="#id17"
       id="linearGradient8411"
       y2="-0.005713"
       x2="0.505497"
       y1="0.999998"
       x1="0.505497" />
    <linearGradient
       xlink:href="#linearGradient9382"
       id="linearGradient9388"
       y2="996.07172"
       x2="3009.922"
       y1="996.07172"
       x1="2049.8495"
       gradientTransform="scale(0.48658203,2.0551519)"
       gradientUnits="userSpaceOnUse" />
    <pattern
       xlink:href="#id0"
       id="pattern7900"
       patternTransform="matrix(1.1690965,0,0,1.1690965,898.20793,1039.033)" />
    <pattern
       id="id0"
       patternUnits="userSpaceOnUse"
       patternTransform="translate(889.628,1123.65)"
       x="0"
       y="0"
       width="391.228"
       height="1694.76">
      <image
         id="_166155144"
         x="0"
         y="0"
         width="391.228"
         height="1694.76" />
    </pattern>
  </defs>
  <g
     id="g1378">
    <title
       id="title1375">background</title>
    <rect
       fill="none"
       id="canvas_background"
       height="402"
       width="582"
       y="-1"
       x="-1" />
  </g>
  <path
     fill="url(#linearGradient8411)"
     stroke="#1f1a17"
     stroke-width="4.87092"
     id="_165586544"
     d="m 1741.1055,2958.3621 -970.12332,93.7529 c -14.15296,-38.5256 -63.51666,-104.2886 -14.91791,-132.1489 47.45703,-27.2041 17.97742,-58.9287 -9.49469,-88.1045 -63.61053,-67.5567 67.7193,-70.5816 9.21301,-152.0271 -53.84655,-74.9607 -38.26458,-82.1221 20.89344,-144.5237 65.1817,-68.7561 -63.30542,-90.0432 26.30548,-149.5625 67.72619,-44.9841 62.10705,-73.7776 11.52704,-130.3027 -55.61805,-62.1556 36.9143,-37.0359 48.38617,-80.888 12.19946,-46.6343 -138.35206,-118.156 -90.04578,-187.9101 13.40741,-19.3609 50.49585,-18.3958 70.82855,-18.8955 48.01196,-56.891 -173.71606,-147.3472 -41.75909,-186.9082 156.0849,-46.7942 -74.92084,-149.9811 -1.4635,-190.3196 53.80804,-29.5473 141.71087,10.9278 126.34545,-93.5954 -18.43994,-125.4417 -10.26098,-128.2173 114.70405,-146.5322 136.0175,-19.9352 73.7126,-172.8018 73.1578,-263.8335 28.4897,-54.1492 148.1432,-67.4501 252.1693,-46.4243 -20.2954,93.0308 -75.6138,232.0481 49.4729,281.8645 29.7654,11.8888 72.8664,-6.7279 46.5665,42.1719 -57.8698,107.5455 139.0184,7.7717 119.4934,74.7759 -10.2251,35.0477 -54.073,56.0805 -59.8538,93.1455 -13.0443,83.4848 111.8365,-12.7034 132.2646,-4.5645 37.7151,14.9732 -55.4357,108.3878 -63.6022,125.2535 -51.7895,107.0306 125.0242,32.575 142.8518,65.5505 28.8556,53.4751 -178.4345,111.0288 -58.8515,167.0181 121.4142,56.7447 -182.5777,120.8753 -28.6745,162.4706 29.8024,8.0727 6.13,31.8681 -5.8609,44.7482 -104.711,112.4011 166.2313,334.0984 81.4223,396.6521 -85.7935,63.3828 78.8735,92.9797 -5.0325,156.4731 -47.8576,36.1094 -43.8977,66.1939 -2.5114,107.0196 76.3319,75.3955 -31.1281,62.4355 17.0649,145.7136 11.9715,20.6697 8.7601,37.0801 9.5238,59.9314 z"
     style="fill:#ffe6d5" />
  <path
     fill="#948ca1"
     stroke="#1f1a17"
     stroke-width="4.87092"
     id="_166160416"
     d="m 1136.6007,1142.2174 c 25.2398,87.7968 56.1288,170.0848 -3.4916,255.7902 -47.7165,68.6043 -227.31094,98.7507 -141.5975,195.6518 69.1512,78.2067 -124.13581,62.1898 -77.85187,132.5089 42.5957,64.5522 67.09668,78.2399 -15.24652,118.4014 -80.66022,39.2435 141.75879,108.3573 16.00854,174.8793 -114.99408,60.9499 142.66365,121.2529 21.60431,200.7187 -63.08032,41.5423 38.11279,85.3184 62.70075,118.2776 48.50769,65.0559 -64.68061,33.25 -53.86731,73.2114 16.7127,61.7825 128.2955,110.0157 43.72235,173.6822 -91.72882,69.0588 115.52565,109.0464 8.91345,174.2866 -72.45636,44.3381 101.0897,196.6328 38.3102,253.3223 -8.5682,7.737 0.4944,11.6899 -18.7036,6.8947 4.1005,-10.7578 21.2882,-31.8818 21.7672,-41.3764 3.2666,-64.6143 -127.57174,-186.3389 -43.39235,-233.6299 76.77095,-43.0569 -115.75074,-94.8616 -15.20093,-170.5257 85.92598,-64.6931 -102.54895,-148.3034 -39.62873,-190.8188 14.99799,-10.1284 66.29031,-2.5168 50.73877,-31.0437 -25.58618,-46.8303 -147.8977,-88.3464 -59.92834,-145.7817 99.62058,-64.8435 -162.35596,-124.3008 -16.44348,-203.1633 100.97366,-54.6529 -147.06647,-120.9923 -1.87488,-180.09 95.89414,-39.1164 -108.84607,-117.3492 31.48981,-167.2392 113.94773,-40.482 -48.19422,-80.5207 26.04175,-155.7787 36.58438,-37.1088 93.24198,-49.4036 131.53738,-87.1796 92.977,-91.719 40.5786,-205.0829 15.1554,-306.4611 -1.0978,-9.1013 -6.1688,-16.7417 -4.7398,-19.3594 1.9011,-1.0121 13.3509,17.8143 14.5562,21.4911 3.3094,10.0856 7.9663,27.9443 9.4215,33.3317 z" />
  <path
     fill="#948ca1"
     stroke="#1f1a17"
     stroke-width="4.87092"
     id="_166160320"
     d="m 1079.1981,3012.6899 c 16.565,-28.8166 37.1201,-32.8579 6.5208,-62.1223 -84.7538,-81.0522 40.5772,-94.1035 -4.2179,-169.5761 -25.3749,-42.7532 -35.8002,-69.2354 8.7466,-103.0999 90.9321,-69.1262 -95.3159,-122.1216 21.081,-193.0225 88.8089,-54.0964 -109.7878,-106.3332 -58.6431,-161.6008 37.5398,-26.3232 99.6524,33.2185 82.6097,-42.8635 -13.7484,-61.3765 -78.5187,-57.011 -115.2247,-93.4505 -84.06617,-83.4587 192.4614,-72.3349 58.251,-148.3839 -41.9233,-23.7555 -153.52231,-78.4028 -49.6371,-113.8482 39.1373,-13.3535 60.7609,-28.422 17.776,-58.9399 -155.01759,-110.0568 160.7238,-119.1695 37.7648,-178.4649 -101.18626,-48.7962 36.1273,-123.3771 75.9563,-156.0744 131.4497,-107.9086 46.7156,-317.9965 28.7838,-459.6174 -2.3485,-18.5489 -11.9496,-32.6055 10.2581,-32.6055 13.1755,124.8222 63.8398,266.1637 40.9375,390.9893 -14.9441,81.4471 -79.2946,115.8763 -139.3377,161.7913 -118.1183,90.3233 101.5234,92.4854 9.2092,155.353 -38.9136,26.5001 -147.61724,43.6118 -66.6177,99.7226 139.5154,96.6455 -145.20761,83.7723 2.9049,159.7303 14.7522,7.5659 29.8993,14.4788 44.1159,23.0431 149.7565,90.2143 -171.80696,98.4814 -34.4637,163.8195 53.0485,25.2354 107.9803,55.1253 95.3323,125.7117 -13.7885,32.8196 -87.5288,-3.0952 -91.4665,18.1914 -11.5615,62.4895 170.694,90.0474 46.1164,166.8032 -78.5755,48.4112 88.2496,112.0022 -4.6389,182.6504 -76.5749,58.2398 46.9434,99.7488 -13.5883,171.3064 -43.3965,51.3008 -9.7543,55.2122 21.4414,97.4822 20.6918,28.0381 -5.8304,42.7805 -18.4523,64.7549 l -11.5173,-7.6792 z" />
  <path
     fill="#948ca1"
     stroke="#1f1a17"
     stroke-width="4.87092"
     id="_166708424"
     d="m 1189.8647,1012.8686 c 0.6075,1.5395 32.495,66.5776 33.1495,68.219 27.2359,68.3656 93.0307,221.5895 110.8108,288.3215 21.0174,78.8847 -69.3114,90.0196 19.0252,147.72 117.32,76.6315 -40.3757,95.5795 -4.9938,151.7581 24.1904,38.4096 173.9639,96.1428 67.8533,142.2089 -106.9905,46.4492 101.9704,81.3878 11.3462,157.4376 -46.786,39.2628 -24.3754,48.8887 4.0191,91.1213 31.9287,47.49 -12.9051,71.3948 -45.6415,97.4861 -92.6015,73.8096 162.2191,106.0725 25.9811,177.9038 -92.705,48.8792 77.7456,140.4517 23.5827,221.3052 -36.5043,54.4929 18.4813,71.7068 4.494,124.2307 -4.4539,16.7266 -14.6156,31.2964 -18.9687,48.1211 -21.3324,82.4397 94.4404,168.1299 35.1512,245.5254 -9.1577,11.9536 -6.003,20.8381 -24.1378,16.3069 9.155,-22.8098 29.4299,-37.9099 28.063,-63.906 -4.2952,-81.6336 -82.1844,-141.9073 -42.252,-227.8816 27.6806,-59.5957 -35.5186,-89.5376 4.7233,-147.949 55.6511,-80.7761 -132.9287,-167.5386 -13.6741,-229.7522 106.3721,-55.4922 -146.0072,-89.8982 -24.4152,-180.1753 72.5446,-53.863 33.6517,-55.0063 4.6608,-115.8141 -31.7783,-66.6522 104.475,-69.9091 18.8184,-135.1078 -121.3546,-92.3695 96.2326,-81.9014 6.7015,-151.536 -46.0059,-35.7822 -126.7569,-70.5772 -56.3,-130.5962 90.7874,-77.3383 -114.9637,-81.3256 -47.0304,-171.7462 20.0125,-26.6368 14.5493,-49.5666 4.6293,-79.8843 -20.3535,-62.2119 -83.8081,-215.6035 -107.8562,-276.4947 l -17.74,-66.8234 h 3e-4 z" />
  <path
     fill="#948ca1"
     stroke="#1f1a17"
     stroke-width="4.87092"
     id="_166160176"
     d="m 1504.2347,2975.2671 c 4.7247,-64.5547 4.2568,-86.9021 -28.1499,-147.6275 -46.6355,-87.3923 -23.3357,-121.7568 17.711,-202.8957 30.0167,-59.3333 1.5975,-81.8682 -24.7577,-132.8164 -28.5518,-55.1914 11.4206,-81.0659 49.1828,-113.4395 100.6368,-86.2778 -171.1792,-140.9555 -3.5897,-215.2856 94.1009,-41.7341 -50.3369,-52.5613 -58.6126,-88.5283 -16.2585,-70.6698 131.9921,-56.3871 50.3107,-143.5569 -86.4464,-92.2521 132.3383,-115.353 46.2973,-167.6028 -31.2481,-18.977 -122.4068,-48.5463 -51.077,-87.8727 69.285,-38.1983 -114.6488,-63.6051 -81.1806,-135.0365 11.966,-25.5379 74.171,-84.2761 0.3976,-72.1471 -44.7468,7.3575 -86.7764,-9.2959 -37.1906,-49.075 57.4227,-46.0641 -60.3935,-147.7131 -84.2691,-191.6163 -43.504,-80.0001 8.3861,-137.9241 29.0157,-213.4582 l 13.402,3.3494 c -28.4827,104.344 -78.4538,143.7404 -1.788,246.6619 30.2017,40.5426 112.6416,115.4068 54.8642,163.7237 -62.8319,52.5433 49.6012,12.3554 69.227,33.4516 24.4941,26.3318 -17.9373,60.2364 -29.6797,82.0534 -35.3418,65.6691 177.4021,84.9704 68.8405,146.9753 -64.2111,36.6728 185.0424,71.218 34.9387,153.7947 -108.9096,59.9159 39.1745,80.783 5.2409,147.6522 -15.0436,29.6466 -124.5942,73.5016 -44.9469,99.996 68.9854,22.9463 84.4142,55.9827 9.3663,89.2935 -119.8171,53.1796 123.7266,113.8772 23.1189,204.4714 -55.3488,49.8413 -75.0367,60.645 -31.0232,130.1228 67.1271,105.9661 -71.8848,164.2195 -28.11,271.1919 7.4997,18.3266 17.3396,35.5832 26.7211,52.9836 12.3664,22.9324 47.7152,148.148 5.2521,148.148 l 0.4887,-12.9119 h -5e-4 z" />
  <path
     fill="url(#linearGradient8404)"
     stroke="#1f1a17"
     stroke-width="4.87092"
     id="_166731168"
     d="m 1500.2716,726.25055 c 57.7828,-36.47675 84.3893,-24.37952 134.3502,-58.09766 40.0457,-27.1076 63.8467,-72.38733 101.6708,-101.67083 37.8243,-29.28351 96.6688,-41.91236 123.4578,-72.62204 26.7887,-30.70972 3.2611,-65.65812 25.4177,-98.03974 26.3621,-39.75571 69.3664,-39.48929 103.5251,-28.72296 19.075,17.1918 35.7532,32.01993 30.8257,58.22195 -7.131,48.23703 -43.2197,50.43915 -50.8356,72.17194 -13.6751,47.62408 -34.1433,141.9751 -87.1463,188.81726 -62.919,45.19006 -88.8778,64.34509 -156.1375,137.98145 -72.7685,65.37365 -272.4919,172.82287 -341.3236,203.34218 -68.8322,30.5191 -65.5807,24.4043 -43.5733,-32.67989 22.0077,-57.08429 108.5962,-211.84265 159.7688,-268.70166 z"
     style="fill:#cccccc" />
  <path
     fill="url(#linearGradient8401)"
     stroke="#1f1a17"
     stroke-width="4.87092"
     id="_166160944"
     d="m 1328.391,1041.9323 c 53.2559,-87.14641 135.5474,-193.56847 171.8863,-290.26561 36.3388,-96.6977 50.4946,-264.4379 54.4667,-308.6438 5.9603,-20.73041 73.0542,-45.82788 81.9967,-84.1601 3.0526,-41.51883 -17.3865,-79.31955 -49.3167,-93.76388 -31.9303,-14.44429 -74.3534,7.14486 -98.0397,25.41769 -23.6864,18.27286 -25.7519,42.21607 -29.0488,72.62204 -30.9817,51.02875 -104.0925,154.92752 -156.1375,232.39066 l -109.843,447.7383 c 45.5476,-11.4525 95.0011,-9.4368 134.0357,-1.3352 z"
     style="fill:#ececec" />
  <path
     fill="url(#linearGradient8398)"
     stroke="#1f1a17"
     stroke-width="4.87092"
     id="_166154856"
     d="m 1064.5376,755.29907 c -6.8838,-97.01111 58.6265,-314.71139 34.5894,-362.51925 -11.8764,-27.21668 -64.6391,-47.70136 -67.2692,-91.36853 -3.0264,-40.10093 27.7026,-87.56205 65.3599,-94.40864 37.6571,-6.84661 85.1831,30.24721 94.8049,65.35987 7.2442,25.20642 -2.343,31.13772 -0.3963,61.72876 3.1355,23.85483 112.5643,141.61267 119.8266,294.11899 9.6825,131.93017 -66.122,303.76397 -118.1664,413.90803 l -41.6017,-79.84694 c -29.0488,-68.9909 -80.2626,-109.96167 -87.1465,-206.97333 z"
     style="fill:#ececec" />
  <path
     fill="url(#linearGradient8395)"
     stroke="#1f1a17"
     stroke-width="4.87092"
     id="_166708280"
     d="M 823.48865,831.80127 C 789.54407,744.04175 760.49792,626.56757 721.65344,568.51953 682.8089,510.47159 667.93109,516.21375 602.43133,501.45737 571.70502,474.28211 580.55774,386.07117 617.33404,357.3978 c 36.77625,-28.67325 66.80121,-15.83881 131.64026,29.80542 75.43848,103.93234 163.76233,153.41354 245.8949,235.95993 75.7298,111.91113 130.968,279.45379 198.0309,421.03025 -25.5448,6.2529 -53.1439,11.422 -81.2926,45.9217 C 1015.567,1004.0096 919.52734,917.90607 823.4884,831.80206 Z"
     style="fill:#f9f9f9" />
  <path
     fill="#e87877"
     stroke="#e87877"
     stroke-width="1.05205"
     id="_166707800"
     d="m 649.62408,508.90851 c 34.4679,3.24591 53.27363,-7.28983 67.0622,-24.8378 -6.69336,17.82275 -13.62146,32.81662 -14.43329,54.87796 -14.09369,-16.76239 -31.48016,-23.8714 -52.62891,-30.04016 z" />
  <path
     fill="#f7c5b4"
     id="_165923464"
     d="m 757.03485,3042.3149 c 0.0152,-0.01 -18.50891,-37.2678 -20.66272,-41.719 -38.76306,-80.1286 4.40839,-57.6296 30.2251,-106.6701 20.54266,-39.0227 -99.53089,-74.8189 -38.05615,-130.9834 87.38806,-79.8413 -91.06061,-116.9202 19.31659,-219.0862 84.96923,-78.6472 -55.37494,-100.8523 54.93316,-174.5557 115.30341,-77.04 -106.99188,-131.5676 29.32489,-182.3462 63.59125,-23.6877 -167.05566,-171.1687 -51.5202,-223.4389 37.43481,-16.9363 84.6944,5.6566 34.90283,-48.9122 -33.79962,-37.0428 -119.57519,-112.0547 -30.93066,-142.763 31.69409,-10.9803 57.79107,-17.8684 61.22345,-33.1549 14.14337,-62.9864 -162.2168,-157.5088 2.1676,-171.0013 157.83276,-12.9561 -49.59283,-209.0041 150.92572,-226.8808 164.36214,-14.6542 106.28914,-119.7271 102.05614,-240.3803 0.8725,-0.04 -20.3936,-25.1526 -23.449,-28.9701 -17.9885,-22.4714 -35.1817,-45.5517 -53.5912,-67.6931 C 891.76562,844.83502 671.13025,778.22693 473.20453,743.5282 449.92816,739.44837 320.43167,688.75788 307.81128,728.74835 c -4.83917,15.33478 145.40521,72.39008 188.207,97.98591 113.91989,68.12664 330.06869,212.91234 287.83737,360.95394 -7.89868,27.6929 -31.89154,92.5515 -40.86432,119.9084 -67.85742,206.8692 83.66998,651.3761 -167.01129,753.1014 -156.91498,63.6741 -394.64256,12.7559 -496.314209,-116.9008 l 0.247139,217.1247 c 205.89776,-14.4207 630.97778,-21.7107 625.10418,276.4387 -3.57031,181.3152 -28.40399,368.3474 -6.12036,550.3686 4.66107,38.077 23.35223,52.7242 58.13763,54.5853 z"
     style="fill:#ffb380" />
  <path
     fill="#dd8281"
     stroke="#1f1a17"
     stroke-width="4.87092"
     id="_166707824"
     d="m 359.85886,2064.4475 c 158.21969,27.4238 311.25558,-12.3086 339.4133,-192.6753 22.61779,-144.8838 33.19073,-293.3672 17.4555,-439.3453 -9.53198,-88.4345 34.19037,-173.9662 56.32489,-257.4701 C 807.02063,1046.8134 644.31628,958.97791 560.38452,889.72534 540.09997,872.98773 447.06784,798.98639 421.86294,812.32764 372.11966,838.65662 317.19199,837.4043 287.99087,782.85632 c -59.68949,-111.50384 99.49631,-171.74841 161.0828,-95.58215 11.14459,13.78436 19.10818,30.68073 31.18613,43.5636 124.65609,24.09503 253.37826,62.22162 368.51675,115.93848 116.99384,54.58111 183.78435,149.22461 264.75125,242.54075 -7.1296,6.1121 -2.4701,2.1358 -12.4962,10.943 -5.2604,-5.2064 -10.2099,-12.6951 -15.1333,-18.5255 C 1023.9445,1008.3586 971.9397,933.03705 885.92902,884.29749 765.30633,815.9458 609.49145,767.4353 473.20407,743.53595 449.92911,739.45471 320.43121,688.76562 307.81082,728.7561 c -3.84787,12.19251 77.54266,49.82068 118.91464,65.02979 59.7544,21.96619 119.01868,55.48279 166.80316,97.08984 75.83893,66.03766 222.18097,149.73787 197.05591,270.19687 -18.58081,89.0835 -70.22937,176.4237 -60.1286,269.8708 15.9065,147.1659 5.2851,296.9025 -17.54394,442.9624 -41.7591,267.1596 -356.5499,242.7851 -540.47216,148.5992 -46.99171,-24.0647 -60.26107,-37.2375 -92.773998,-78.701 L 78.0988,1921.5217 c 73.00996,93.1068 169.31323,122.4068 281.75926,142.9243 h 7.9e-4 z"
     style="fill:#b3b3b3" />
  <path
     fill="#f7c5b4"
     id="_166160560"
     d="m 2394.1042,1955.8033 c -126.1313,14.7273 -255.6369,18.85 -378.0856,-19.63 -265.2155,-83.3442 -182.6504,-363.7503 -190.2951,-575.4842 -4.4125,-122.2162 -32.0365,-386.14674 113.7337,-441.11769 112.6109,-42.46728 168.192,-19.45331 236.9605,-7.323 137.2776,27.95124 95.824,-8.30456 71.7813,-18.92584 -42.0242,-14.14746 -91.6157,-54.41131 -137.1946,-62.24646 -92.0022,-15.81811 -196.8081,-39.26013 -288.3414,-17.34228 -63.4449,15.19128 -131.2065,17.01788 -187.5534,50.54412 -87.9223,52.31543 -173.024,110.00721 -254.1604,172.88365 -21.7217,97.2542 -68.7301,182.7871 21.117,257.9564 13.6684,11.4346 21.4513,16.6631 39.619,17.6379 101.6419,5.4232 -26.757,104.3645 60.518,92.4439 28.1335,-3.8602 82.9961,-21.8224 93.9986,18.0728 5.5185,20.0317 -105.0631,154.3885 -30.8548,126.5419 25.7298,-9.6453 90.2972,-63.2171 108.9664,-20.2818 23.0347,52.9823 -173.2192,194.7714 -6.1825,169.0314 20.1422,-3.0885 48.4635,-9.5995 67.0649,1.6651 94.098,57.0346 -168.3815,117.7725 -43.5843,177.5333 110.097,52.6661 -92.5972,113.057 -75.9328,146.5976 9.4795,19.0819 97.2224,5.0752 47.3519,64.2678 -12.1137,14.3838 -26.7982,26.22 -33.2072,44.595 -33.6796,96.2573 193.0903,302.7561 97.9762,368.8606 -65.9687,45.9946 90.7569,84.2026 -2.441,154.6186 -97.5551,73.9185 100.8923,105.9661 11.4856,180.5484 -21.7645,18.2163 23.6381,81.8862 20.5082,109.4397 36.1067,-3.0029 69.6426,-18.4605 74.6212,-55.9546 20.0484,-150.9551 -1.0617,-316.6897 4.2925,-470.3557 2.9932,-85.919 -10.4791,-315.6211 105.382,-339.0977 143.5511,-29.0874 316.6639,-35.4853 452.4579,22.0352 2.0998,0.8891 0,-113.2987 0,-147.5108 v 0 z"
     style="fill:#ffb380" />
  <path
     fill="#dd8281"
     stroke="#1f1a17"
     stroke-width="4.87092"
     id="_166155552"
     d="m 1355.2101,1039.8748 c 86.1207,-65.55321 194.3623,-141.97752 287.9718,-196.36619 47.4846,-27.58954 100.3635,-22.23951 152.034,-36.42145 101.1725,-27.77039 212.0683,-20.14777 314.8039,-3.53449 54.7646,8.85688 96.7253,55.19409 152.4128,49.21594 109.2656,-11.72863 147.6311,122.47223 41.3821,158.34949 -65.1404,21.9964 -98.8391,-19.82611 -145.8999,-55.79199 -25.6731,-19.62036 -53.874,-34.01227 -86.1841,-38.53388 -305.5176,-42.75317 -225.0441,379.84767 -230.9187,557.87537 -2.8124,85.2301 -15.5572,174.3824 0.8463,258.8309 47.2305,243.1418 363.2453,230.8814 552.6166,208.8006 v 13.906 c -126.1313,14.7273 -255.803,18.4439 -378.2529,-20.0346 -265.2143,-83.3442 -182.6503,-363.7503 -190.2949,-575.4842 -4.4126,-122.2162 -32.0365,-386.14675 113.7335,-441.1177 112.6112,-42.46734 168.192,-19.45331 236.9605,-7.323 137.2779,27.95124 95.824,-8.30456 71.7813,-18.9259 -42.0239,-14.14746 -91.6155,-54.41125 -137.1946,-62.24646 -92.0021,-15.81811 -196.808,-39.26013 -288.3413,-17.34222 -63.4448,15.19122 -131.2065,17.01782 -187.5533,50.54412 -87.9225,52.31543 -173.0241,110.00721 -254.4142,171.97646 l -25.4868,3.6243 v 0 z"
     style="fill:#b3b3b3" />
  <path
     fill="#948ca1"
     stroke="#1f1a17"
     stroke-width="4.87092"
     id="_166160152"
     d="m 1741.1055,2958.3621 c -0.7636,-22.8511 2.4478,-39.2615 -9.5237,-59.9312 -48.1929,-83.2778 59.267,-70.3176 -17.065,-145.7139 -41.3861,-40.8256 -45.3458,-70.9101 2.5115,-107.0195 83.906,-63.4929 -80.761,-93.0901 5.0325,-156.4729 84.809,-62.553 -186.1331,-284.2505 -81.4222,-396.6523 11.9908,-12.8799 35.6634,-36.6753 5.8607,-44.7481 -153.9034,-41.5948 150.0886,-105.7258 28.6747,-162.4704 -119.5835,-55.9895 87.7069,-113.5431 58.8514,-167.0184 -17.827,-32.9754 -194.6405,41.4802 -142.8519,-65.5504 8.1666,-16.8661 101.3173,-110.2806 63.6023,-125.2535 -20.4281,-8.1389 -145.3094,88.0496 -132.2646,4.5644 5.7808,-37.0648 49.6287,-58.0977 59.8538,-93.1455 19.525,-67.0041 -177.3637,32.7697 -119.4934,-74.7758 26.3,-48.8998 -16.7942,-30.3092 -46.5665,-42.1719 -125.0759,-49.8386 -69.1746,-190.9122 -48.8791,-283.9419 5.6261,0.3382 3.9929,0.6931 17.7744,-3.9074 -20.2609,101.7206 -77.04,182.406 16.866,260.9705 13.667,11.4346 21.4512,16.663 39.6191,17.6378 101.6418,5.4232 -26.757,104.3646 60.5179,92.444 28.1335,-3.8602 82.9963,-21.8225 93.9986,18.0727 5.5185,20.0318 -105.063,154.3885 -30.8546,126.5418 25.7298,-9.6452 90.297,-63.2171 108.9662,-20.2817 23.0347,52.9823 -173.2192,194.7716 -6.1826,169.0314 20.1423,-3.0885 48.4635,-9.5994 67.065,1.6652 94.0982,57.0346 -168.3814,117.7725 -43.5841,177.5332 110.097,52.6661 -92.5972,113.057 -75.9329,146.5977 9.4796,19.0819 97.2224,5.075 47.352,64.2678 -12.1138,14.3835 -26.7985,26.22 -33.2074,44.595 -33.6794,96.2573 193.0903,302.7563 97.9763,368.8603 -65.9688,45.9949 90.7567,84.2029 -2.441,154.6189 -97.5551,73.9185 100.8922,105.9661 11.4857,180.5483 -27.8601,23.3179 54.334,121.1067 4.2606,121.1067 z" />
  <path
     fill="url(#linearGradient9388)"
     stroke="#1f1a17"
     stroke-width="4.87092"
     id="path211"
     d="m 1240.2878,1174.1104 -33.8023,-102.4013 c 13.1755,124.8222 56.5775,233.4849 33.6753,358.3095 -14.9427,81.447 -79.2946,115.8763 -139.3376,161.7911 -118.11849,90.3234 101.5232,92.4855 9.209,155.3531 -38.9135,26.5 -147.61722,43.6119 -66.6176,99.7228 139.5153,96.6453 -145.20763,83.7721 2.9049,159.7301 14.7522,7.5659 29.8993,14.4788 44.1158,23.043 149.7566,90.2143 -171.80688,98.4814 -34.4636,163.8198 53.0484,25.2354 107.9804,55.125 95.3323,125.7117 -13.7886,32.8193 -87.5289,-3.0955 -91.4665,18.1914 -11.5615,62.4895 170.6939,90.0471 46.1164,166.8032 -78.5754,48.4109 88.2496,112.0022 -4.639,182.6502 -76.5749,58.2397 46.9435,99.749 -13.5882,171.3066 -43.3966,51.3005 -9.7544,55.2119 21.4414,97.4819 20.6916,28.0381 -5.8305,42.7808 -18.4523,64.7552 l 340.8244,-29.833 c 9.155,-22.8099 29.4299,-37.91 28.0629,-63.9061 -4.2952,-81.6335 -82.1844,-141.9072 -42.2519,-227.8815 27.6807,-59.5955 -35.5186,-89.5376 4.7231,-147.949 55.651,-80.7764 -132.9285,-167.5386 -13.6739,-229.7522 106.3721,-55.4922 -146.0073,-89.8982 -24.4155,-180.1753 72.5448,-53.8633 33.6519,-55.0064 4.6611,-115.8142 -31.7784,-66.6521 104.4748,-69.909 18.8184,-135.1078 -121.3547,-92.3695 96.2324,-81.9014 6.7016,-151.5359 -46.0058,-35.7822 -126.7569,-70.5773 -56.3002,-130.5963 90.7874,-77.3383 -114.9636,-81.3256 -47.0304,-171.7461 20.0126,-26.6368 14.5494,-49.5653 4.6294,-79.8843 -20.3549,-62.2119 -51.1281,-121.1943 -75.1763,-182.0866 z"
     style="fill:url(#linearGradient9388);opacity:1" />
  <path
     fill="url(#radialGradient8383)"
     id="_167105680"
     d="m 2396.501,2119.1028 c -6.2749,-2.1262 5.6455,2.2932 -0.5274,-0.1118 -138.1557,-53.8592 -310.5986,-59.074 -455.8237,-23.22 -109.1001,26.9353 -88.4581,303.0615 -92.52,385.6091 -6.7652,137.4541 19.2352,285.2127 -3.3274,420.3333 -11.9935,71.8281 -181.5197,86.2781 -195.3992,11.2773 -5.5516,-29.9946 -8.8901,-138.5144 -13.1203,-244.6767 -4.4085,-110.6465 -10.0912,-218.6971 -35.3515,-230.4732 -28.4068,-13.2419 -23.0541,69.9959 -22.8788,80.2156 2.2891,132.51 -12.5045,274.5305 13.1755,404.0081 13.6422,68.7866 -96.6095,68.3269 -141.9704,71.7065 -143.4704,10.6919 -103.289,-198.3933 -102.9907,-292.6223 0.1338,-42.3169 18.9066,-240.6843 -24.9262,-265.8855 -28.422,-16.3413 -65.6084,-20.8809 -97.0167,-11.3281 -82.9134,25.219 -59.9863,324.3669 -58.2261,380.9687 2.4439,78.552 30.6491,224.1907 -82.6262,225.2441 -47.867,0.4444 -126.93345,11.233 -149.559,-43.7058 -27.07861,-65.7573 23.76508,-470.6643 -28.9508,-497.8867 -31.1156,-16.0679 -16.32337,143.0635 -16.06385,158.3496 1.84314,108.5906 8.20936,220.0999 -1.68579,328.3665 -7.78265,85.1582 -53.362,79.5515 -122.19275,80.0154 -55.3778,6.4047 -77.29412,-32.2312 -81.04809,-84.0291 -11.39728,-157.261 -11.69965,-326.3403 4.26483,-482.7888 1.74237,-17.0757 3.13678,-34.2095 3.4751,-51.3767 5.67303,-286.8552 -414.45526,-275.6519 -610.697474,-261.8821 v 1250.103 H 2398.3999 L 2396.5,2119.105 Z"
     style="fill:url(#radialGradient8383)" />
  <path
     fill="#e87877"
     stroke="#e87877"
     stroke-width="1.05205"
     id="_167105896"
     d="m 1070.6637,359.10049 c 34.9731,9.01975 56.8674,7.27323 81.9593,-3.49166 -22.4754,16.29159 -34.7771,34.32839 -45.9189,59.34988 -5.8153,-34.62244 -15.6952,-41.02185 -36.0404,-55.85828 z" />
  <path
     fill="#e87877"
     stroke="#e87877"
     stroke-width="1.05205"
     id="_166124432"
     d="m 1462.2175,364.61743 c 18.9259,41.31589 28.1873,49.04746 47.1147,56.29587 -31.41,-9.02115 -55.3296,-10.3093 -85.5312,3.38257 12.9669,-19.97376 25.451,-39.706 38.4165,-59.6785 z" />
  <path
     fill="#e87877"
     stroke="#e87877"
     stroke-width="1.05205"
     id="_166155432"
     d="m 1874.7449,460.06015 c -2.031,32.18698 30.7981,39.30011 56.8619,43.70572 -31.7024,-2.03229 -62.7283,2.37198 -94.0925,10.16431 16.4712,-10.84082 36.6672,-22.02131 37.2306,-53.87006 z" />
  <path
     fill="#948ca1"
     stroke="#1f1a17"
     stroke-width="4.87092"
     id="_167105296"
     d="m 749.29309,3027.6426 c -15.8623,-35.5916 -53.26532,-87.7676 -6.935,-115.7036 80.79279,-48.7188 -89.25464,-86.2215 -4.45257,-157.0166 67.33001,-56.2078 -63.00306,-99.9285 -25.97419,-169.795 31.79078,-59.9809 99.69929,-59.4328 49.48926,-131.1118 -30.11053,-42.9851 18.34326,-68.5532 48.65955,-89.6716 100.96814,-70.3357 -112.39295,-132.6013 19.20349,-176.398 6.29022,-2.0932 13.21558,-4.9304 17.24017,-10.4834 19.74182,-27.2331 -220.85168,-218.0247 -9.4519,-223.3698 21.672,-43.0832 -190.46686,-141.0937 -39.12067,-186.4838 119.02924,-35.698 -36.9378,-97.8341 -24.43469,-161.5867 15.68695,-79.9904 162.32556,10.8051 137.70557,-118.2389 -20.36042,-106.7171 -4.07428,-138.3018 108.26069,-148.7617 147.1951,-13.7042 82.2921,-139.4756 81.668,-239.1118 l 13.5151,-13.3577 c 0.555,91.0315 62.8595,243.8981 -73.1577,263.8335 -124.96474,18.3157 -133.14376,21.0907 -114.70419,146.5321 15.36524,104.5234 -72.53784,64.0484 -126.34539,93.5955 -73.4574,40.3384 157.54858,143.5253 1.4635,190.3196 -131.95709,39.561 89.77105,130.0163 41.75903,186.9081 -20.33276,0.4998 -57.42108,-0.4652 -70.82855,18.8955 -48.30609,69.7546 102.24524,141.2761 90.04584,187.9101 -11.47181,43.8521 -104.00409,18.7327 -48.38623,80.888 50.58001,56.5251 56.19928,85.3186 -11.52698,130.3027 -89.6109,59.5198 38.87628,80.8066 -26.30554,149.5627 -59.1579,62.4012 -74.73999,69.5625 -20.89338,144.5237 58.50629,81.4458 -72.8236,84.4707 -9.21307,152.0269 27.47217,29.176 56.95172,60.9004 9.49469,88.1047 -48.59869,27.8599 -0.68616,86.6548 13.46686,125.1809 -17.67639,4.4153 -14.45813,-4.0727 -20.24164,-17.4929 z" />
  <line
     fill="none"
     stroke="#1f1a17"
     stroke-width="1.05205"
     y2="2259.9438"
     x2="213.9568"
     y1="2297.5188"
     x1="199.34309"
     class="fil10 str2"
     id="_167105968" />
  <path
     fill="url(#linearGradient8375)"
     stroke="#1f1a17"
     stroke-width="1.05205"
     id="_166708688"
     d="m 424.79748,2355.9734 c 9.68525,-3.6311 19.42853,-11.1543 22.96296,-20.8755 5.47427,-15.0544 9.9945,-34.0825 2.08752,-48.0132 -8.95627,-15.781 -28.9743,-22.7532 -45.92584,-29.2256 -21.92886,-8.3723 -45.58344,-11.8171 -68.8888,-14.6128 -11.76449,-1.4111 -23.64355,1.7686 -35.48815,2.0877 -13.91141,0.3755 -28.08509,-2.6277 -41.75077,0 -5.33619,1.0256 -7.39335,8.6523 -12.52524,10.4375 -11.34477,3.946 -28.60006,-3.5774 -35.48815,6.2627 -10.89054,15.5586 -17.30777,39.6162 -8.35015,56.3635 10.29962,19.2559 35.36528,27.4019 56.36354,33.4006 19.40223,5.5433 40.54685,-2.7434 60.53864,0 15.91467,2.1844 29.87439,13.9847 45.92584,14.6128 20.46118,0.802 41.36557,-3.2487 60.53861,-10.4377 v 0 z"
     style="fill:url(#linearGradient8375)" />
  <path
     fill="url(#linearGradient8372)"
     stroke="#1f1a17"
     stroke-width="1.05205"
     id="_165784800"
     d="m 2061.4263,2226.5427 c 11.9204,-22.2175 25.7297,-46.6548 48.0134,-58.4509 17.229,-9.1221 39.3,-1.5603 58.4509,2.0874 10.6988,2.0378 18.4138,15.9231 29.2256,14.6128 15.1651,-1.8377 24.4995,-21.1143 39.6633,-22.9629 15.7503,-1.9204 36.449,-0.2002 45.9258,12.5251 17.8753,24.004 40.0706,58.5989 27.138,85.5892 -11.0271,23.0141 -49.8621,11.1955 -75.1514,14.6128 -26.2849,3.551 -52.8057,6.6645 -79.3264,6.2624 -19.6785,-0.2966 -39.5762,-2.7734 -58.4512,-8.3501 -12.2505,-3.6186 -25.5903,-8.6799 -33.4004,-18.7878 -5.5476,-7.178 -6.3772,-19.1441 -2.0876,-27.138 z"
     style="fill:url(#linearGradient8372)" />
  <path
     fill="url(#linearGradient8369)"
     stroke="#1f1a17"
     stroke-width="1.05205"
     id="_166241056"
     d="m 216.04362,2401.8955 c 25.23684,-14.8833 58.41802,-4.7231 87.67662,-6.2627 36.85495,-1.9385 78.02317,-21.4429 110.63956,-4.175 16.96408,8.9812 -21.14041,36.7182 -39.66324,41.7507 -49.13315,13.3511 -102.43844,20.2957 -152.39055,10.4377 -13.80503,-2.7238 -18.38334,-34.603 -6.26262,-41.7507 z"
     style="fill:url(#linearGradient8369)" />
  <path
     fill="url(#linearGradient8366)"
     stroke="#1f1a17"
     stroke-width="1.05205"
     id="_166160224"
     d="m 243.18187,2535.5 c 33.62428,-19.8137 75.84035,-20.9128 114.81462,-22.9631 28.1058,-1.4786 58.92188,-1.1831 83.50156,12.5254 15.76562,8.7917 38.37231,35.8332 25.05047,48.0134 -24.57559,22.4685 -65.20379,13.7248 -98.11432,18.7876 -21.41937,3.2944 -43.11489,8.0327 -64.71371,6.2627 -21.53253,-1.7644 -47.61157,-1.168 -62.62616,-16.7002 -10.65031,-11.0176 -11.11423,-38.146 2.08754,-45.9258 z"
     style="fill:url(#linearGradient8366)" />
  <path
     fill="url(#linearGradient8363)"
     stroke="#1f1a17"
     stroke-width="1.05205"
     id="_166708712"
     d="m 211.86879,2700.4243 c 60.31074,-5.4204 121.1862,-8.0547 181.61562,-4.175 16.50567,1.0588 35.49646,5.9519 45.92587,18.7878 10.24301,12.6067 15.95056,33.6575 8.35016,48.0134 -8.00775,15.1263 -29.84131,17.1145 -45.92584,22.9629 -14.75367,5.3638 -30.25412,11.3406 -45.92588,10.4378 -21.56842,-1.2439 -41.22198,-13.7637 -62.62616,-16.7005 -14.4927,-1.988 -29.58444,5.3763 -43.83832,2.0877 -13.96112,-3.2212 -30.15052,-8.6221 -37.57569,-20.8755 -8.32531,-13.7373 -4.17507,-31.9495 -4.17507,-48.0134 0,-4.4002 -0.20711,-12.1316 4.17507,-12.5252 z"
     style="fill:url(#linearGradient8363)" />
  <path
     fill="url(#linearGradient8360)"
     stroke="#1f1a17"
     stroke-width="1.05205"
     id="_166708136"
     d="m 2053.0789,2324.665 c 30.718,-24.1352 78.1501,-13.2971 116.9021,-8.3501 28.4592,3.6326 51.9565,24.7991 79.3266,33.4007 21.6126,6.7912 50.783,-3.4932 66.801,12.5251 12.7918,12.7918 13.543,42.281 0,54.2759 -18.4162,16.311 -48.4841,9.4148 -73.0637,10.4377 -42.4148,1.7674 -85.0947,2.0906 -127.3403,-2.0874 -21.4995,-2.1264 -51.1765,1.6194 -62.6262,-16.7004 -14.7508,-23.602 -21.8861,-66.3054 0,-83.5015 z"
     style="fill:url(#linearGradient8360)" />
  <path
     fill="url(#linearGradient8357)"
     stroke="#1f1a17"
     stroke-width="1.05205"
     id="_166708448"
     d="m 673.21533,3078.2646 c 57.80225,-12.5349 119.02454,-9.26 177.4408,0 9.16882,1.4524 1.46069,21.9895 -6.26264,27.138 -16.14801,10.7649 -37.04284,12.7739 -56.36352,14.6128 -24.9469,2.3747 -50.10925,-1.1431 -75.15143,-2.0874 -11.84039,-0.4461 -27.11041,6.29 -35.48816,-2.0877 -8.9107,-8.9106 -16.49048,-34.9055 -4.17505,-37.5757 z"
     style="fill:url(#linearGradient8357)" />
  <path
     fill="#cddde4"
     stroke="#1f1a17"
     stroke-width="1.05205"
     id="_166160632"
     d="m 631.46454,3193.0815 c 32.0365,19.8316 75.09619,10.2308 112.72711,8.3501 18.90521,-0.9443 35.47986,-18.9367 54.276,-16.7002 14.24414,1.6956 19.30139,29.7806 33.40058,27.138 16.98748,-3.1853 31.62231,-22.4715 33.40063,-39.6631 1.17358,-11.3518 -16.31097,-17.2666 -27.138,-20.8755 -15.23962,-5.0793 -31.96472,-4.8821 -48.01337,-4.175 -31.47467,1.3874 -62.4342,10.4377 -93.93927,10.4377 -13.67114,0 -27.67645,-17.011 -39.6632,-10.4377 -15.28937,8.3845 -39.8772,36.7485 -25.05048,45.9257 z" />
  <path
     fill="#cddde4"
     stroke="#1f1a17"
     stroke-width="1.05205"
     id="_166707992"
     d="m 635.6394,3261.9646 c 46.75696,-7.2854 94.79383,-6.0166 141.95282,-2.0874 12.40381,1.0327 21.10327,14.7798 33.40064,16.7002 11.19153,1.748 24.45959,-13.2168 33.40063,-6.2625 9.40082,7.3118 11.13355,25.8223 4.17505,35.4881 -8.75744,12.1636 -28.63592,9.445 -41.75073,16.7004 -19.75708,10.9292 -34.06201,34.0413 -56.36359,37.5757 -37.95397,6.0168 -81.32153,8.4026 -114.81463,-10.4377 -19.57617,-11.012 -18.78784,-42.252 -18.78784,-64.7137 0,-9.8896 9.01703,-21.4402 18.78784,-22.9631 h -1.8e-4 z" />
  <path
     fill="#cddde4"
     stroke="#1f1a17"
     stroke-width="1.05205"
     id="_166708016"
     d="m 907.01941,3207.6953 c 8.84442,-15.9189 19.4906,-37.5246 37.57568,-39.6633 52.12079,-6.1646 107.95291,-3.083 156.56541,16.7004 18.7907,7.646 33.7721,39.1966 22.9629,56.3635 -10.3811,16.4876 -38.9811,0.7027 -58.451,0 -38.3034,-1.3835 -76.71567,-2.0876 -114.81467,-6.2626 -12.92145,-1.4151 -26.52362,-3.5965 -37.57569,-10.4378 -5.05456,-3.1284 -9.14953,-11.5034 -6.26263,-16.7002 z" />
  <path
     fill="#cddde4"
     stroke="#1f1a17"
     stroke-width="1.05205"
     id="_165784944"
     d="m 1350.2064,3173.1133 c -21.0163,11.5078 -20.3797,49.615 31.313,50.1894 43.9212,0.4888 106.5418,-7.2829 149.6701,-15.6123 19.249,-3.718 42.1015,-10.3259 52.1886,-27.1379 5.5916,-9.3196 -10.0982,-23.645 -20.8755,-25.0505 -25.1816,-3.2847 -49.7627,13.0705 -75.1514,12.5251 -40.0416,-0.8589 -102.0175,-14.1487 -137.1455,5.0862 z" />
  <path
     fill="#cddde4"
     stroke="#1f1a17"
     stroke-width="1.05205"
     id="_166708664"
     d="m 1410.485,3264.9692 c 60.4599,-7.0412 98.302,-12.6799 154.1103,11.6143 13.413,5.8372 10.0097,35.6123 -2.0876,43.8381 -29.1703,19.8357 -67.4941,21.3394 -102.2894,27.1382 -36.4808,6.0789 -76.481,22.5278 -110.6394,8.3501 -16.7087,-6.935 -5.4316,-37.0207 0,-54.2761 6.8424,-21.7412 38.2673,-34.0276 60.9057,-36.6646 z" />
  <path
     fill="#cddde4"
     stroke="#1f1a17"
     stroke-width="1.05205"
     id="_166708160"
     d="m 1643.9185,3195.1626 c -11.3337,-23.6548 5.3762,-62.1458 29.2255,-73.064 43.6962,-20.0056 97.0278,3.7085 144.0397,-6.2624 23.8147,-5.0506 41.32,-49.3501 62.6262,-37.5757 24.2455,13.3989 29.9656,57.0937 16.7004,81.4138 -17.2002,31.5354 -58.0232,44.283 -91.8519,56.3638 -26.2847,9.3869 -55.8223,9.8562 -83.5015,6.2624 -27.0607,-3.5136 -65.4468,-2.5293 -77.2389,-27.1379 z" />
  <path
     fill="#cddde4"
     stroke="#1f1a17"
     stroke-width="1.05205"
     id="_166155168"
     d="m 1688.1219,3267.0503 c 56.2753,-7.4636 119.4058,-13.874 174.2656,0.7207 21.3684,5.6841 13.3371,21.356 27.8588,38.0315 8.2756,9.5015 8.1099,34.7688 -4.1751,37.5757 -23.3896,5.3457 -44.9843,-18.8199 -68.8888,-20.8755 -41.6197,-3.5801 -83.6355,7.7937 -125.2523,4.175 -23.2405,-2.02 -58.9205,1.0796 -66.8012,-20.8752 -8.0229,-22.3528 39.4504,-35.6304 62.9933,-38.7522 z" />
  <path
     fill="url(#linearGradient8347)"
     stroke="#1f1a17"
     stroke-width="1.05205"
     id="_168516216"
     d="m 917.45709,3055.3037 c 60.21564,-19.6357 127.67121,-15.6167 189.96651,-4.1753 14.501,2.6633 21.4787,28.7036 14.6128,41.751 -10.5164,19.9805 -34.4582,32.0998 -56.3635,37.5757 -38.5312,9.6325 -79.51573,10.6474 -118.98955,6.2624 -12.86346,-1.4289 -26.94055,-10.7815 -31.31305,-22.9629 -6.58569,-18.3488 -16.44769,-52.4079 2.08752,-58.4509 z"
     style="fill:url(#linearGradient8347)" />
  <path
     fill="url(#linearGradient8344)"
     stroke="#1f1a17"
     stroke-width="1.05205"
     id="_167105800"
     d="m 1345.4014,3030.2498 c 57.1491,-28.8526 129.7861,-25.3143 192.0533,-10.4378 22.6178,5.4026 46.8716,31.2193 43.8383,54.2761 -2.5983,19.7557 -37.9525,13.6243 -54.276,25.0506 -5.6136,3.9292 -1.752,16.9363 -8.3501,18.7878 -35.8155,10.0525 -73.4422,15.0076 -110.6396,14.6128 -29.0654,-0.3081 -72.7642,9.3816 -85.5891,-16.7004 -16.6202,-33.7954 -10.6599,-68.6155 22.9629,-85.5891 z"
     style="fill:url(#linearGradient8344)" />
  <path
     fill="url(#linearGradient8341)"
     stroke="#1f1a17"
     stroke-width="1.05205"
     id="_166241176"
     d="m 1641.8375,3042.7708 c 5.0767,-23.6961 23.1507,-48.0823 45.9258,-56.3636 28.8405,-10.4873 61.1793,7.221 91.8517,6.2627 14.3381,-0.4472 27.4059,-10.4377 41.7508,-10.4377 15.0201,0 31.9068,1.3144 43.8383,10.4377 13.6519,10.439 37.3783,30.0374 27.1379,43.8384 -15.4908,20.8794 -50.7318,11.9536 -75.1513,20.8752 -11.9978,4.3836 -20.7069,17.3589 -33.4007,18.7879 -38.0367,4.2856 -77.5549,6.6797 -114.8145,-2.0874 -13.4447,-3.1631 -30.0319,-17.8076 -27.138,-31.3132 z"
     style="fill:url(#linearGradient8341)" />
  <path
     fill="#84a1aa"
     stroke="#1f1a17"
     stroke-width="1.05205"
     id="_168517032"
     d="m 1308.2826,2489.1335 c 0,0 0,4.9026 0,4.9026 v 4.9014 c 0,0 0,4.9026 0,4.9026 v 4.9014 c 0,0 0,4.9025 0,4.9025 0,7.3562 -1.1819,4.9014 -4.7205,4.9014 0,0 -4.7205,0 -4.7205,0 0,0 -2.3608,-4.9014 -2.3608,-14.7053 0,0 0,-14.7066 0,-14.7066 0,-4.9013 2.3608,-4.9013 2.3608,-9.8039 0,-8.1692 7.04,-10.1394 9.441,9.8039 z" />
  <path
     fill="#84a1aa"
     stroke="#1f1a17"
     stroke-width="1.05205"
     id="_166154688"
     d="m 1272.7537,2563.1958 c 0,0 0,2.1787 0,2.1787 v 2.1785 c 0,0 0,2.1787 0,2.1787 v 2.1787 c 0,0 0,2.1787 0,2.1787 0,3.2693 -1.0909,2.1785 -4.3573,2.1785 0,0 -4.3575,0 -4.3575,0 0,0 -2.1785,-2.1785 -2.1785,-6.5359 0,0 0,-6.5359 0,-6.5359 0,-2.1787 2.1785,-2.1787 2.1785,-4.3574 0,-3.6311 6.4989,-4.5064 8.7148,4.3574 z" />
  <path
     fill="#84a1aa"
     stroke="#1f1a17"
     stroke-width="1.05205"
     id="_166155000"
     d="m 1310.5507,2664.4746 c 0,0 0,4.9026 0,4.9026 v 4.9014 c 0,0 0,4.9026 0,4.9026 v 4.9013 c 0,0 0,4.9026 0,4.9026 0,7.3562 -1.6361,4.9014 -6.5361,4.9014 0,0 -6.5346,0 -6.5346,0 0,0 -3.268,-4.9014 -3.268,-14.7053 0,0 0,-14.7066 0,-14.7066 0,-4.9014 3.268,-4.9014 3.268,-9.8039 0,-8.1692 9.7473,-10.1394 13.0707,9.8039 z" />
  <path
     fill="#84a1aa"
     stroke="#1f1a17"
     stroke-width="1.05205"
     id="_166730856"
     d="m 1237.6925,2703.4756 c 0,0 0,2.1787 0,2.1787 v 2.1787 c 0,0 0,2.1787 0,2.1787 v 2.1785 c 0,0 0,2.1787 0,2.1787 0,3.2693 -1.0908,2.1787 -4.3573,2.1787 0,0 -4.3574,0 -4.3574,0 0,0 -2.1786,-2.1787 -2.1786,-6.5359 0,0 0,-6.5361 0,-6.5361 0,-2.1787 2.1786,-2.1787 2.1786,-4.3572 0,-3.6311 6.4988,-4.5066 8.7147,4.3572 z" />
  <path
     fill="#84a1aa"
     stroke="#1f1a17"
     stroke-width="1.05205"
     id="_168517920"
     d="m 1293.3064,2806.5784 c 0,0 0,3.6311 0,3.6311 v 3.6311 c 0,0 0,3.6311 0,3.6311 v 3.6311 c 0,0 0,3.6311 0,3.6311 0,5.4492 1.8184,3.6311 7.2622,3.6311 0,0 7.2622,0 7.2622,0 0,0 3.6311,-3.6311 3.6311,-10.8933 0,0 0,-10.8933 0,-10.8933 0,-3.6311 -3.6311,-3.6311 -3.6311,-7.2622 0,-6.0515 -10.8312,-7.5108 -14.5244,7.2622 z" />
  <path
     fill="#84a1aa"
     stroke="#1f1a17"
     stroke-width="1.05205"
     id="_166708568"
     d="m 1223.1606,2911.7854 c 0,0 0,3.6311 0,3.6311 v 3.6311 c 0,0 0,3.6311 0,3.6311 v 3.6311 c 0,0 0,3.6311 0,3.6311 0,5.4492 1.8183,3.6311 7.2623,3.6311 0,0 7.2622,0 7.2622,0 0,0 3.6309,-3.6311 3.6309,-10.8933 0,0 0,-10.8933 0,-10.8933 0,-3.6311 -3.6309,-3.6311 -3.6309,-7.2622 0,-6.0515 -10.8313,-7.511 -14.5245,7.2622 z" />
  <path
     fill="#84a1aa"
     stroke="#1f1a17"
     stroke-width="1.05205"
     id="_166124288"
     d="m 1258.2335,3052.0652 c 0,0 0,3.6311 0,3.6311 v 3.6311 c 0,0 0,3.6311 0,3.6311 v 3.6311 c 0,0 0,3.6311 0,3.6311 0,5.4492 1.8183,3.6311 7.2622,3.6311 0,0 7.2622,0 7.2622,0 0,0 3.6311,-3.6311 3.6311,-10.8933 0,0 0,-10.8933 0,-10.8933 0,-3.6311 -3.6311,-3.6311 -3.6311,-7.2622 0,-6.0513 -10.8311,-7.5108 -14.5244,7.2622 z" />
  <path
     fill="#84a1aa"
     stroke="#1f1a17"
     stroke-width="1.05205"
     id="_166124360"
     d="m 1223.1606,2455.896 c 0,0 0,3.6311 0,3.6311 v 3.6311 c 0,0 0,3.6311 0,3.6311 v 3.6311 c 0,0 0,3.6311 0,3.6311 0,5.4495 1.8183,3.6311 7.2623,3.6311 0,0 7.2622,0 7.2622,0 0,0 3.6309,-3.6311 3.6309,-10.8933 0,0 0,-10.8933 0,-10.8933 0,-3.6311 -3.6309,-3.6311 -3.6309,-7.2622 0,-6.0513 -10.8313,-7.5105 -14.5245,7.2622 z" />
  <path
     fill="#84a1aa"
     stroke="#1f1a17"
     stroke-width="1.05205"
     id="_167105464"
     d="m 1205.3436,2594.3406 c 0,0 0,4.9026 0,4.9026 v 4.9011 c 0,0 0,4.9028 0,4.9028 v 4.9014 c 0,0 0,4.9026 0,4.9026 0,7.3562 -1.636,4.9013 -6.5359,4.9013 0,0 -6.5348,0 -6.5348,0 0,0 -3.2679,-4.9013 -3.2679,-14.7053 0,0 0,-14.7065 0,-14.7065 0,-4.9014 3.2679,-4.9014 3.2679,-9.804 0,-8.1694 9.7474,-10.1394 13.0707,9.804 z" />
  <path
     fill="#84a1aa"
     stroke="#1f1a17"
     stroke-width="1.05205"
     id="_168517992"
     d="m 1293.3064,2946.8582 c 0,0 0,3.6311 0,3.6311 v 3.6311 c 0,0 0,3.6311 0,3.6311 v 3.6311 c 0,0 0,3.6311 0,3.6311 0,5.4492 1.8184,3.6311 7.2622,3.6311 0,0 7.2622,0 7.2622,0 0,0 3.6311,-3.6311 3.6311,-10.8933 0,0 0,-10.8933 0,-10.8933 0,-3.6311 -3.6311,-3.6311 -3.6311,-7.2623 0,-6.0512 -10.8312,-7.5107 -14.5244,7.2623 z" />
  <path
     fill="#84a1aa"
     stroke="#1f1a17"
     stroke-width="1.05205"
     id="_169205600"
     d="m 1188.0994,3157.2722 c 0,0 0,3.6311 0,3.6311 v 3.6311 c 0,0 0,3.6309 0,3.6309 v 3.6311 c 0,0 0,3.6311 0,3.6311 0,5.4495 1.8183,3.6311 7.2622,3.6311 0,0 7.2622,0 7.2622,0 0,0 3.6311,-3.6311 3.6311,-10.8933 0,0 0,-10.8931 0,-10.8931 0,-3.6311 -3.6311,-3.6311 -3.6311,-7.2622 0,-6.0515 -10.8312,-7.5107 -14.5244,7.2622 z" />
  <path
     fill="#84a1aa"
     stroke="#1f1a17"
     stroke-width="1.05205"
     id="_166155120"
     d="m 1293.3064,3227.4063 c 0,0 0,3.6311 0,3.6311 v 3.6311 c 0,0 0,3.6311 0,3.6311 v 3.6311 c 0,0 0,3.6311 0,3.6311 0,5.4492 1.8184,3.6311 7.2622,3.6311 0,0 7.2622,0 7.2622,0 0,0 3.6311,-3.6311 3.6311,-10.8933 0,0 0,-10.8933 0,-10.8933 0,-3.6312 -3.6311,-3.6312 -3.6311,-7.2623 0,-6.0512 -10.8312,-7.5107 -14.5244,7.2623 z" />
  <path
     fill="#84a1aa"
     stroke="#1f1a17"
     stroke-width="1.05205"
     id="_169206368"
     d="m 1188.0994,2806.5784 c 0,0 0,3.6311 0,3.6311 v 3.6311 c 0,0 0,3.6311 0,3.6311 v 3.6311 c 0,0 0,3.6311 0,3.6311 0,5.4492 1.8183,3.6311 7.2622,3.6311 0,0 7.2622,0 7.2622,0 0,0 3.6311,-3.6311 3.6311,-10.8933 0,0 0,-10.8933 0,-10.8933 0,-3.6311 -3.6311,-3.6311 -3.6311,-7.2622 0,-6.0515 -10.8312,-7.5108 -14.5244,7.2622 z" />
  <path
     fill="#84a1aa"
     stroke="#1f1a17"
     stroke-width="1.05205"
     id="_169204904"
     d="m 1223.1606,3016.9922 c 0,0 0,3.6311 0,3.6311 v 3.6311 c 0,0 0,3.6311 0,3.6311 v 3.6311 c 0,0 0,3.6311 0,3.6311 0,5.4495 1.8183,3.6311 7.2623,3.6311 0,0 7.2622,0 7.2622,0 0,0 3.6309,-3.6311 3.6309,-10.8933 0,0 0,-10.8933 0,-10.8933 0,-3.6311 -3.6309,-3.6311 -3.6309,-7.2622 0,-6.0513 -10.8313,-7.5108 -14.5245,7.2622 z" />
  <path
     fill="#84a1aa"
     stroke="#1f1a17"
     stroke-width="1.05205"
     id="_169205168"
     d="m 1258.2335,3157.2722 c 0,0 0,3.6311 0,3.6311 v 3.6311 c 0,0 0,3.6309 0,3.6309 v 3.6311 c 0,0 0,3.6311 0,3.6311 0,5.4495 1.8183,3.6311 7.2622,3.6311 0,0 7.2622,0 7.2622,0 0,0 3.6311,-3.6311 3.6311,-10.8933 0,0 0,-10.8931 0,-10.8931 0,-3.6311 -3.6311,-3.6311 -3.6311,-7.2622 0,-6.0515 -10.8311,-7.5107 -14.5244,7.2622 z" />
  <path
     fill="#84a1aa"
     stroke="#1f1a17"
     stroke-width="1.05205"
     id="_169205696"
     d="m 1237.6925,3299.6331 c 0,0 0,2.1784 0,2.1784 v 2.179 c 0,0 0,2.1784 0,2.1784 v 2.1788 c 0,0 0,2.1787 0,2.1787 0,3.2693 -1.0908,2.1784 -4.3573,2.1784 0,0 -4.3574,0 -4.3574,0 0,0 -2.1786,-2.1784 -2.1786,-6.5359 0,0 0,-6.5358 0,-6.5358 0,-2.1788 2.1786,-2.1788 2.1786,-4.3575 0,-3.6311 6.4988,-4.5063 8.7147,4.3575 z" />
  <polygon
     fill="#ffffff"
     id="_166160608"
     points="2373.5985,1286.1917 2390.7256,1287.4309 2389.7786,1116.9416 2371.6459,1117.2688 " />
  <text
     font-size="87.6711px"
     font-weight="normal"
     fill="#1f1a17"
     font-family="Arial"
     id="text261"
     y="278.51624"
     x="1818.259">Exosquelette</text>
  <text
     font-size="87.6711px"
     font-weight="normal"
     fill="#1f1a17"
     font-family="Arial"
     id="_169206584"
     y="139.25423"
     x="1304.314">Nematocyte</text>
  <text
     font-size="87.6711px"
     font-weight="normal"
     fill="#1f1a17"
     font-family="Arial"
     id="_168517488"
     y="279.52826"
     x="504.44339" />
  <text
     font-size="87.6711px"
     font-weight="normal"
     fill="#1f1a17"
     font-family="Arial"
     id="_166138144"
     y="560.0752"
     x="80.659912" />
  <text
     font-size="87.6711px"
     font-weight="normal"
     fill="#1f1a17"
     font-family="Arial"
     id="_166731336"
     y="1953.1613"
     x="124.00768" />
  <text
     font-size="87.6711px"
     font-weight="normal"
     fill="#1f1a17"
     font-family="Arial"
     id="text270"
     y="1850.3508"
     x="1926.6995" />
  <text
     font-size="87.6711px"
     font-weight="normal"
     fill="#1f1a17"
     font-family="Arial"
     id="_168517176"
     y="1506.9287"
     x="1960.7557">Filaments</text>
  <text
     font-size="87.6711px"
     font-weight="normal"
     fill="#1f1a17"
     font-family="Arial"
     id="text273"
     y="1604.864"
     x="1987.0951" />
  <text
     font-size="87.6711px"
     font-style="normal"
     font-weight="normal"
     text-anchor="start"
     fill="#1f1a17"
     font-family="Arial"
     id="_169204712"
     y="1226.3807"
     x="1375.4178"><tspan
       id="tspan7927"
       y="1226.3807"
       x="1375.4178" /></text>
  <path
     fill="#cddde4"
     stroke="#1f1a17"
     stroke-width="1.05205"
     id="_166155192"
     d="m 916.18628,3297.0376 c 46.75696,-7.2856 94.79382,-6.0168 141.95292,-2.0874 12.4036,1.0327 21.1032,14.7798 33.4006,16.7002 78.7687,12.2932 37.8628,22.6702 -4.1751,45.926 -71.0978,39.3303 -189.96651,86.699 -189.96651,-37.5759 0,-9.8897 9.01703,-21.44 18.78784,-22.9629 z" />
  <text
     font-size="87.6711px"
     font-weight="normal"
     fill="#1f1a17"
     font-family="Arial"
     id="_168517824"
     y="2970.1465"
     x="168.63426">Gastropode</text>
  <text
     font-size="87.6711px"
     font-weight="normal"
     fill="#1f1a17"
     font-family="Arial"
     id="_168517752"
     y="3260.3513"
     x="2011.4122" />
  <line
     fill="none"
     stroke="#1f1a17"
     stroke-width="4.87092"
     y2="305.04263"
     x2="1111.7457"
     y1="246.94437"
     x1="846.67645"
     class="fil10 str0"
     id="_165784848" />
  <line
     fill="none"
     stroke="#1f1a17"
     stroke-width="4.87092"
     y2="486.59744"
     x2="1463.9595"
     y1="159.79875"
     x1="1442.1792"
     class="fil10 str0"
     id="_169205240" />
  <circle
     fill="none"
     stroke="#1f1a17"
     stroke-width="4.87092"
     id="_166124456"
     r="23.602188"
     cy="508.72266"
     cx="1464.1115" />
  <line
     fill="none"
     stroke="#1f1a17"
     stroke-width="4.87092"
     y2="813.3974"
     x2="2070.3582"
     y1="301.41141"
     x1="2157.5027"
     class="fil10 str0"
     id="_168049352" />
  <line
     fill="none"
     stroke="#1f1a17"
     stroke-width="4.87092"
     y2="1688.4895"
     x2="1220.6821"
     y1="1510.5647"
     x1="646.96558"
     class="fil10 str0"
     id="_168517368" />
  <line
     fill="none"
     stroke="#1f1a17"
     stroke-width="4.87092"
     y2="1528.7207"
     x2="1565.6357"
     y1="1532.3566"
     x1="1936.0055"
     class="fil10 str0"
     id="_166155024" />
  <line
     fill="none"
     stroke="#1f1a17"
     stroke-width="4.87092"
     y2="2661.6338"
     x2="1249.7343"
     y1="2933.9631"
     x1="599.76215"
     class="fil10 str0"
     id="_167105824" />
  <line
     fill="none"
     stroke="#1f1a17"
     stroke-width="4.87092"
     y2="1144.153"
     x2="1221.9346"
     y1="544.3653"
     x1="576.72601"
     class="fil10 str0"
     id="_166160776" />
  <path
     fill="#dd8281"
     stroke="#1f1a17"
     stroke-width="4.87092"
     id="_166708304"
     d="m 764.51941,3055.2803 c -55.37775,6.4048 -77.29413,-32.2312 -81.0481,-84.0291 -11.39721,-157.261 -11.69958,-326.3403 4.26483,-482.7888 1.74238,-17.0759 3.13685,-34.2112 3.4751,-51.3767 5.67169,-286.8555 -414.39679,-275.0183 -610.640149,-261.2488 l -0.658562,-14.9165 c 147.195091,-10.3093 303.975621,-12.2891 444.905521,37.3799 265.89344,93.7114 160.17908,297.3911 168.64917,506.6677 3.68634,91.0659 -4.03839,183.7586 4.53266,274.4173 8.49237,89.8374 160.4281,85.7065 171.70758,20.6518 26.71826,-154.1011 -0.44598,-324.103 4.30762,-480.6157 1.83899,-60.5745 48.21911,-58.5974 56.55267,-8.564 23.66852,142.0862 -8.68701,289.2205 7.98431,431.323 10.03315,85.5186 96.52504,85.3875 166.62434,72.2642 86.456,-16.1853 40.9997,-282.0596 44.9994,-353.0051 3.2956,-58.4415 -0.2112,-121.5298 11.6319,-178.2498 20.4032,-97.7112 176.5815,-110.5183 191.2583,-9.3333 20.0829,138.4666 0.3604,282.9004 8.0368,422.5467 6.0266,109.6247 121.1909,100.2405 199.7273,63.1921 34.5285,-16.2876 5.281,-70.1203 4.1627,-100.4104 -4.4788,-121.3381 -4.7701,-249.9866 -1.1639,-371.2019 0.5881,-19.7739 0.5495,-47.645 17.0483,-61.3782 15.2465,-5.5583 28.5021,-4.6665 37.5385,10.3467 26.1936,43.5193 30.45,144.0374 30.5798,244.533 0.1615,125.1809 -3.881,250.0637 45.5489,261.5571 48.3918,11.251 129.4646,7.6834 137.432,-52.3098 20.0498,-150.9551 -1.0618,-316.6897 4.2923,-470.3557 2.9933,-85.919 -10.4776,-315.6211 105.3821,-339.0977 143.5511,-29.0859 317.3138,-35.4852 453.108,22.0352 v 15.6719 c -138.157,-53.8592 -309.3862,-59.0726 -454.6102,-23.22 -109.0989,26.9338 -88.4582,303.0615 -92.5201,385.6091 -6.7651,137.4541 19.2351,285.2127 -3.3274,420.3335 -11.9936,71.8279 -181.5197,86.2778 -195.3992,11.2771 -5.5516,-29.9946 -8.8901,-138.5146 -13.1203,-244.6767 -4.4084,-110.6465 -10.091,-218.6971 -35.3515,-230.4734 -28.4069,-13.2417 -23.054,69.9961 -22.8788,80.2155 2.2892,132.51 -12.5045,274.5308 13.1755,404.0081 13.6422,68.7866 -96.6095,68.3269 -141.9705,71.7068 -143.4703,10.6916 -103.2889,-198.3933 -102.9906,-292.6226 0.134,-42.3169 18.9065,-240.6843 -24.9262,-265.8852 -28.422,-16.3413 -65.6084,-20.8809 -97.0167,-11.3282 -82.9134,25.2188 -59.9863,324.367 -58.226,380.9688 2.4437,78.552 30.649,224.1907 -82.6263,225.2439 -47.867,0.4446 -126.93339,11.2329 -149.55894,-43.7058 -27.07861,-65.7573 23.76508,-470.6641 -28.95081,-497.8865 -31.1156,-16.0681 -16.32336,143.0635 -16.06384,158.3494 1.84314,108.5908 8.20935,220.1001 -1.68579,328.3664 -7.78265,85.1585 -53.362,79.5515 -122.19275,80.0154 l 10e-4,-7e-4 z"
     style="fill:#cccccc" />
  <text
     font-size="32px"
     font-style="normal"
     font-weight="normal"
     fill="#000000"
     font-family="'Bitstream Vera Sans'"
     text-anchor="start"
     id="text3224"
     y="1472.8254"
     x="218.46976"
     xml:space="preserve" />
  <text
     font-size="87.6711px"
     font-weight="normal"
     fill="#1f1a17"
     font-family="Arial"
     id="svg_1"
     y="258.01251"
     x="466.75562">Tentacule</text>
  <text
     font-size="87.6711px"
     font-weight="normal"
     fill="#1f1a17"
     font-family="Arial"
     id="svg_2"
     y="558.03339"
     x="279.24255">Bouche</text>
  <text
     font-size="87.6711px"
     font-weight="normal"
     fill="#1f1a17"
     font-family="Arial"
     id="svg_3"
     y="1613.1862"
     x="1985.7574">digestifs</text>
  <text
     font-size="87.6711px"
     font-weight="normal"
     fill="#1f1a17"
     font-family="Arial"
     id="svg_6"
     y="1527.3882"
     x="261.59793">Estomac</text>
  <text
     font-size="87.6711px"
     font-weight="normal"
     fill="#1f1a17"
     font-family="Arial"
     id="svg_9"
     y="3007.9563"
     x="1943.749" />
</svg>
